<svg xmlns="http://www.w3.org/2000/svg" width="38" height="12"><path id="arrow2" d="M131.669 1929.41v-.5H169v.5h-37.331zm-.674-.32l.352-.35 5.973 5.92-.352.34zm.171-.04l.361.36 6.12-6.06-.361-.36zm.5.36v-.5H169v.5h-37.331zm-.674-.32l.352-.35 5.973 5.92-.352.34zm.171-.04l.361.36 6.12-6.06-.361-.36zm.5.36v-.5H169v.5h-37.331zm-.674-.32l.352-.35 5.973 5.92-.352.34zm.171-.04l.361.36 6.12-6.06-.361-.36zm.5.36v-.5H169v.5h-37.331zm-.674-.32l.352-.35 5.973 5.92-.352.34zm.171-.04l.361.36 6.12-6.06-.361-.36z" transform="translate(-131 -1923)" fill="#fdfaf3" fill-rule="evenodd"/></svg>