<svg version="1.0" xmlns="http://www.w3.org/2000/svg" width="1061.333" height="505.333" viewBox="0 0 796 379"><path d="M545.8 30.7c-4.8.7-5.1 2.1-5.2 20.6-.1 18.6.7 22.7 5.6 26.1 4.1 2.9 4.1 1.6 0-2.8-5.1-5.5-5.8-8.1-3.8-14.3 1.5-4.7 1.5-4.7 1.3-1.1-.2 2.1-.2 3.8 0 3.8s.9-1.5 1.7-3.3c1.4-3 1.4-3.1 1.5-.7.1 1.9.4 2.1 1 1.1.8-1.2 1.1-1.2 2.3 0 .8.8 1.7 2.1 2.1 2.9.4 1.2.6 1.1.6-.3.1-.9.6-1.7 1.2-1.7s.8.7.5 1.6c-.4 1-.2 1.4.6 1.1.7-.2 1.2-1 1-1.7-.2-1 0-1.1 1.1-.2.8.7 1.7.9 2 .5.4-.3.7.4.7 1.6 0 5.1 4.5 8 12.5 8.1 3.2.1 9.3 2.9 6.4 3-.9 0-2.2.7-2.9 1.5-1 1.3-.9 1.5 1.1 1.6 10.2.4 78-.5 83.9-1.1 4.7-.4-7.3-.8-32.5-1.1l-40-.3 37.7-.5c20.7-.4 38-1 38.4-1.4.5-.4-16.8-.7-38.3-.5-21.6.2-38.5 0-37.5-.4 2.4-.9 99-1 99.6 0 .9 1.5-.9 3-3.9 3.5l-3 .4 3.1.2c1.7 0 3.6.7 4.2 1.3.8 1-11 1.3-58.4 1.2-32.7-.1-59.2.1-58.9.4.3.4 26.3.5 57.8.3 37-.1 58.1.1 59.7.8 1.7.7-16.2 1-58 1-33.4.1-61-.3-61.5-.7-.6-.5-2.1-.3-3.5.5-2.1 1.1 8.2 1.3 67 1.3h72.8c2.1 0 3.2.5 3.2 1.4 0 .8.7 2.2 1.6 3 .8.9 1.2 1.6.7 1.6s-.9.9-1 2c-.1 1.4.4 2 1.8 2 1.1 0 3.2 1.3 4.6 3 1.3 1.6 3.1 3 3.8 3 .8 0 1.7.5 2 1 .4.6.1.9-.6.8-.7-.2-1.4.6-1.6 1.7-.3 1.6.1 1.5 2.3-1 1.5-1.7 2.5-2.2 2.2-1.3-.4 1-.1 1.9.8 2.2 1 .4 1.2.2.8-.6-.5-.8-.2-.9.9-.5 1 .4 1.7.1 1.7-.6s.5-.4 1.1.6c1.4 2.5.4 4.6-2 4.4-1.2-.1-2.1-.5-2.1-.9 0-.8-3.9-.2-4.9.8-.3.3-.8 5.9-1 12.5-.3 10.9-.2 11.9 1.5 11.9 1.4 0 1.5.3.6 1.2-.7.7-1.2 1.6-1.2 2.2 0 .5.6.3 1.3-.6 1.4-1.8 5.2-2.9 7.3-2.1.9.3 1.4 2.1 1.4 4.9 0 4.2-.1 4.4-2.9 4-1.6-.2-4.4.3-6 1.2-2.5 1.2-2.9 1.7-2 2.9 1.7 2-.1 3.4-4.2 3.4-3.3.1-5.4.6-11.8 3-1.7.6-3.4 2.3-4.1 3.9l-1.2 2.9-73.1.3-73.2.3-4.6 2.8c-6.3 3.7-7.9 8-8.3 22.8-.3 9.3-.2 10.1.4 4.4.6-5.7.7-4.8.5 5.2-.3 12.2.5 16.1 3.4 17.1.8.3.4-.8-.9-2.6-2-2.6-2.1-3.7-1.4-7.9.7-4.2.9-4.4 1.2-1.8l.4 3 1.4-3 1.3-3-.6 3c-.5 2.9-.5 2.9 1.2 1 1.5-1.9 1.6-1.9 1.1-.1-.6 1.6-.4 1.7.9.6.8-.7 1.5-.9 1.5-.4s1.5 1 3.3 1.1c6 .5 7.2 1 7.2 2.9.1 3.6 1.6 6.2 3.8 6.8 1.2.3 31.7.6 67.8.6 63.6 0 73.6.3 70.7 2.1-1 .7-1 .9 0 .9.9 0 .9.6-.3 2.4-2.2 3.3-1 5.3 3.6 6.1 2.4.4 3.9 1.2 3.9 2.1 0 2.4 4.7 6.4 7.5 6.4 2.1 0 2.5.5 2.5 3 0 2.4.4 3 2.3 3 2 .1 2 .2.5 1.1-2 1.1-2.4 3.4-.8 4.4 1.6 1 4.2-1.6 3.5-3.4-.5-1.3-.4-1.4.7-.3 1 1 1 1.6 0 3.2-.7 1.1-.8 2-.3 2s1.4-1.4 2.1-3.1c1-2.2 1.5-2.7 2.1-1.7 1.3 1.9 1.1 3.6-.2 1.8-.9-1.3-1-1.3-.6 0 .3 1.1 1.8 1.4 6 1.3 3.9-.1 5.7.3 6.1 1.3.7 1.8-.2 2.2-4.7 1.9-2-.1-3.5 0-3.2.3.2.2-.2 1.4-1 2.6-1.3 1.7-1.5 9.6-1.5 50.6 0 26.7.4 49.1.8 49.8.6.9 5.8 1.3 20.3 1.5 25 .3 30.7-.1 31.2-2.2.4-1.2.5-1.2.6.3.1 1.6.7 1.8 3.8 1.3 4.2-.7 6.3-2.9 6.3-6.4 0-2.5-2.8-4.7-7.4-5.7-3-.7-2.6-2.1.8-2.8 1-.1 2.7-1.4 3.8-2.8 1.7-2.4 1.7-3.2.6-13-1.7-13.4-1.6-41.6 0-54.5 1.2-9.8 1.2-10-.9-11.8-1.2-.9-3.2-1.7-4.5-1.7-1.3 0-2.4-.5-2.4-1 0-.6 1.3-1 2.8-1 6.6 0 9.1-6.8 5.2-14.2-2.8-5.5-10.6-13.3-11.6-11.7-.5.8-.3.9.6.4.9-.6 1.1-.4.5.5-.6.9-.4 1.1.5.5.9-.5 1.1-.4.6.4-.6.8-1.2.9-2 .2-.7-.6-1.6-.7-2.1-.3-.4.4-.2-.4.5-1.8 1.2-2.4 1.2-2.4-.6-.9-4 3.3-4.9 2-5.5-8-.4-5.8-1-9.6-1.8-9.9-.6-.2-.9-.7-.7-1.1.3-.4-1.4-.7-3.7-.7l-4.2.1-.5-5.2c-.3-2.8-.2-5 .1-4.7 1 .6-1.5-6.2-3-8-.7-.9-2.6-1.6-4.2-1.6-1.9 0-2.9-.5-2.9-1.5 0-1.5 2.7-2 8.3-1.6 2.6.2 3.7-1.2 1.8-2.3-1-.6-.3-18.7.7-19.8.6-.6 3.5-1.2 7.4-1.7.7-.1 2.6-5.6 2.7-8.4.3-4.2.6-5.6 1-5.2.2.3 1 0 1.6-.5.9-.7 1.7-.5 2.6.7 1.2 1.4 1.2 1.6 0 .8-1-.5-1.2-.4-.7.4.4.6 1.2.9 1.7.6.5-.4.9 0 .9.7 0 .9.3.9 1-.2.5-.8 1-2 1-2.5 0-.6-.4-.4-.9.3-.7 1.1-.9 1-1.4-.3-.5-1.1-.3-1.4.5-.9.8.5.9.2.4-1.1-.5-1.5-.4-1.6.9-.5 1.7 1.4 1.9 4.3.5 7.1-.8 1.4-.7 1.9.3 1.9s1.3-5.5 1.4-29c0-16-.3-29-.7-29-.5 0-.6 1.7-.3 3.9.3 2.1 0 4.7-.6 5.7-.9 1.6-1 1.3-.6-1.6.5-2.9.4-3.1-.4-1.3-1.2 2.6-2.7 3.2-1.7.7.4-1 .2-1.3-.7-.7-2.2 1.4-5.7 1.1-5.9-.6 0-.9-.2-2.8-.3-4.4-.3-3.7-3.1-6.5-6.9-6.9l-3.1-.3-.7-7.5c-1.2-13-1-12.5-5.6-12.8-5-.4-6-1.6-6.3-7.1-.3-3.6-.7-4.5-2.8-5.3-1.4-.5-3.3-.7-4.2-.5-1.3.4-1.8-.5-2.2-4.7-.3-2.8-.9-6-1.3-7-.7-1.9-.7-1.9 1.3 0 1.1 1 1.8 2.2 1.6 2.6-.2.4.4.5 1.3.1 1.6-.6 1.6-.8-.3-1.6-1.3-.6-2.5-2.4-3-4.6-.6-2.3-1.8-4-3.3-4.8-2-1-22.5-1.3-95.5-1.1-51.1.1-94.2.3-95.7.5z"/></svg>