<svg width="99" height="66" fill="none" xmlns="http://www.w3.org/2000/svg"><path d="M21.655 38.102c-2.82 0-5.3-.581-7.438-1.744s-3.783-2.755-4.936-4.777c-1.152-2.023-1.728-4.273-1.728-6.75 0-2.477.576-4.726 1.728-6.749 1.153-2.022 2.798-3.615 4.936-4.777 2.138-1.163 4.617-1.744 7.438-1.744 2.82 0 5.3.581 7.438 1.744 2.138 1.162 3.783 2.755 4.936 4.777 1.152 2.023 1.728 4.272 1.728 6.75 0 2.476-.576 4.726-1.728 6.748-1.153 2.023-2.798 3.615-4.936 4.778-2.138 1.163-4.618 1.744-7.438 1.744zm0-1.516c1.971 0 3.677-.48 5.118-1.441 1.44-.96 2.54-2.32 3.298-4.076.758-1.757 1.137-3.836 1.137-6.238 0-2.401-.379-4.48-1.137-6.237-.758-1.757-1.858-3.115-3.298-4.076-1.441-.96-3.147-1.44-5.118-1.44-1.971 0-3.677.48-5.118 1.44-1.44.96-2.54 2.32-3.298 4.076-.758 1.757-1.137 3.836-1.137 6.237 0 2.402.379 4.48 1.137 6.238.758 1.756 1.858 3.115 3.298 4.076 1.44.96 3.147 1.44 5.118 1.44z" fill="#2B2A29"/><path fill-rule="evenodd" clip-rule="evenodd" d="M30.421 30.358l-.617 1.462c4.799.42 7.433 3.08 8.49 7.576h.963c0-1.608-.064-2.873-.192-3.797-.129-.925-.466-1.668-1.013-2.23-.932-.938-2.37-1.709-4.315-2.311a19.388 19.388 0 00-3.316-.7zm-3.458 27.925c-2.99 0-5.617-.603-7.883-1.808-2.266-1.206-4.01-2.847-5.231-4.923s-1.832-4.387-1.832-6.932c0-2.992.88-5.796 2.67-8.295.098.068.207.127.326.175.492.2 2.198.935 3.036 1.198-.807 1.838-1.21 4.145-1.21 6.922 0 2.116.41 4.086 1.229 5.907.82 1.822 2.097 3.302 3.833 4.44 1.735 1.14 3.905 1.708 6.509 1.708 2.346 0 4.395-.468 6.147-1.406 1.751-.938 3.318-2.344 4.7-4.22l.965.603c-1.479 2.411-3.303 4.12-5.472 5.124-2.17 1.005-4.765 1.507-7.787 1.507z" fill="#2B2A29"/><path d="M27.954 15.883c-6.3.562-7.297 5.017-7.434 5.9-.136-.883-1.133-5.338-7.434-5.9-8.308-.74-11.727-4.273-11.727-4.273s1.274 4.678 5.273 6.232c.668.26 1.352.48 2.044.67.652.18 1.312.332 1.973.475.63.135 1.262.262 1.892.399.606.13 1.21.272 1.806.445.587.169 1.165.369 1.722.615a9.96 9.96 0 011.634.91 9.91 9.91 0 011.545 1.325c.2.21.39.43.574.656.194.238.382.473.523.746.033.065.088.18.172.193.124.02.169-.162.214-.243.07-.125.145-.247.225-.365a6.46 6.46 0 01.59-.712c.239-.26.479-.52.74-.76a9.656 9.656 0 011.574-1.177 10.66 10.66 0 011.662-.8c.57-.218 1.157-.393 1.75-.546a40.86 40.86 0 011.834-.416c.64-.134 1.28-.265 1.918-.41.672-.154 1.34-.324 2-.526.468-.143.93-.302 1.385-.48 3.998-1.553 5.272-6.23 5.272-6.23s-3.419 3.533-11.727 4.272z" fill="#8BC34A"/><path d="M43.133 39.177c0-1.183-.163-2.06-.488-2.628-.324-.568-.974-.853-1.949-.853H40V35h3.133c.858 0 1.502.11 1.932.33.429.221.736.622.922 1.202.186.58.279 1.462.279 2.645v18.796h-3.133V39.177zm12.183 19.145c-.743 0-1.497-.157-2.263-.47-.766-.314-1.421-.83-1.967-1.55-.545-.719-.818-1.67-.818-2.853 0-1.764.818-3.017 2.454-3.76 1.636-.742 3.777-1.114 6.422-1.114h1.045c0-2.274-.314-3.829-.94-4.664-.627-.835-1.532-1.253-2.715-1.253-1.044 0-1.88.22-2.506.661-.627.441-1.068 1.207-1.323 2.297h-1.566c0-.788.046-1.41.139-1.862.093-.452.336-.876.73-1.27.418-.418 1.109-.725 2.072-.923a15.716 15.716 0 013.15-.295c1.88 0 3.365.504 4.456 1.514 1.09 1.01 1.635 2.941 1.635 5.795v9.398h-1.74l-1.218-1.566h-.174c-.418.534-1.033.986-1.845 1.358-.812.37-1.822.556-3.028.556zm1.566-1.567c.766 0 1.404-.186 1.914-.557.511-.371.975-.882 1.393-1.531v-4.7h-1.045c-1.717 0-3.074.32-4.072.958-.998.638-1.497 1.48-1.497 2.524 0 1.067.32 1.885.957 2.453.639.569 1.422.853 2.35.853zm16.742 1.566c-2.668 0-4.467-.463-5.395-1.392-.394-.394-.638-.841-.73-1.34-.093-.499-.14-1.27-.14-2.315h.696c.21 1.16.714 2.06 1.514 2.698.801.638 1.92.957 3.36.957 1.276 0 2.233-.22 2.871-.661.638-.441.957-1.033.957-1.775 0-.673-.25-1.254-.748-1.74-.499-.488-1.294-.952-2.385-1.393l-2.088-.87c-1.392-.557-2.436-1.207-3.133-1.95-.696-.742-1.044-1.659-1.044-2.75 0-1.415.534-2.523 1.601-3.323 1.068-.801 2.449-1.201 4.142-1.201 2.553 0 4.293.464 5.221 1.392.395.395.639.835.732 1.323.092.487.139 1.264.139 2.332h-.696c-.186-1.16-.673-2.06-1.462-2.698-.79-.638-1.868-.957-3.237-.957-1.091 0-1.944.226-2.559.679-.615.452-.922 1.038-.922 1.757 0 1.207.928 2.194 2.784 2.96l2.089.87c1.578.649 2.726 1.34 3.446 2.07.72.731 1.079 1.665 1.079 2.803 0 1.415-.569 2.523-1.706 3.324-1.137.8-2.599 1.2-4.386 1.2zm15.525 0c-2.669 0-4.467-.463-5.395-1.392-.395-.394-.639-.841-.731-1.34-.093-.499-.14-1.27-.14-2.315h.697c.208 1.16.713 2.06 1.514 2.698.8.638 1.92.957 3.359.957 1.276 0 2.233-.22 2.871-.661.639-.441.958-1.033.958-1.775 0-.673-.25-1.254-.749-1.74-.499-.488-1.293-.952-2.384-1.393l-2.088-.87c-1.393-.557-2.437-1.207-3.133-1.95-.697-.742-1.045-1.659-1.045-2.75 0-1.415.534-2.523 1.602-3.323 1.067-.801 2.448-1.201 4.142-1.201 2.552 0 4.293.464 5.22 1.392.396.395.64.835.732 1.323.093.487.14 1.264.14 2.332h-.697c-.186-1.16-.673-2.06-1.462-2.698-.789-.638-1.868-.957-3.237-.957-1.09 0-1.944.226-2.559.679-.614.452-.922 1.038-.922 1.757 0 1.207.928 2.194 2.785 2.96l2.088.87c1.578.649 2.727 1.34 3.446 2.07.72.731 1.08 1.665 1.08 2.803 0 1.415-.57 2.523-1.706 3.324-1.138.8-2.6 1.2-4.386 1.2zM39.209 22.5c0-.852-.117-1.482-.35-1.891-.235-.41-.702-.614-1.404-.614h-.5v-.5h2.254c.618 0 1.09.083 1.415.25.326.167.564.417.714.751h.125c.35-.35.806-.647 1.365-.889.56-.242 1.19-.363 1.892-.363 1.252 0 2.275.334 3.068 1.002.793.668 1.19 1.837 1.19 3.507v7.514h-2.254v-7.514c0-1.17-.263-2.025-.79-2.568-.526-.543-1.181-.814-1.966-.814-.885 0-1.72.442-2.505 1.328v9.568H39.21V22.5zm13.35-4.76c0-.85-.116-1.481-.35-1.89-.234-.41-.701-.614-1.402-.614h-.502v-.501h2.255c.618 0 1.081.08 1.39.238.31.158.53.447.664.864.134.418.2 1.052.2 1.904v13.526H52.56V17.741zm7.29.251c-.384 0-.714-.158-.99-.476a1.663 1.663 0 01-.413-1.127c0-.35.105-.626.314-.826.208-.2.488-.301.839-.301.384 0 .714.159.99.476.275.317.412.693.412 1.127 0 .35-.104.626-.313.827-.209.2-.488.3-.839.3zm-.952 4.51c0-.853-.117-1.483-.35-1.892-.234-.41-.702-.614-1.403-.614h-.501v-.5h2.254c.618 0 1.082.079 1.39.237.31.159.53.447.664.864.134.418.2 1.052.2 1.904v8.767h-2.254V22.5zm6.162 0c0-.853-.117-1.483-.35-1.892-.234-.41-.702-.614-1.403-.614h-.501v-.5h2.254c.618 0 1.09.083 1.416.25.325.167.563.417.714.751h.125c.35-.35.806-.647 1.365-.889.56-.242 1.19-.363 1.891-.363 1.253 0 2.275.334 3.069 1.002.793.668 1.19 1.837 1.19 3.507v7.514h-2.255v-7.514c0-1.17-.263-2.025-.789-2.568-.526-.543-1.181-.814-1.966-.814-.885 0-1.72.442-2.505 1.328v9.568h-2.255V22.5zm17.835 9.017c-1.135 0-2.096-.271-2.88-.814-.785-.543-1.378-1.278-1.779-2.205-.4-.926-.601-1.966-.601-3.118 0-1.136.2-2.171.601-3.106.4-.935.981-1.674 1.741-2.217.76-.543 1.65-.814 2.668-.814 1.686 0 2.943.471 3.77 1.415.826.944 1.24 2.309 1.24 4.096l-.05 1.002h-7.59c0 1.402.3 2.546.901 3.431.602.886 1.428 1.328 2.48 1.328.785 0 1.449-.167 1.992-.501.542-.334 1.047-.835 1.515-1.503l.501.376c-.55.918-1.194 1.586-1.929 2.004-.734.417-1.594.626-2.58.626zm2.38-6.764c0-1.47-.217-2.588-.651-3.356-.434-.768-1.094-1.152-1.98-1.152-.5 0-.951.196-1.352.588-.4.393-.714.931-.94 1.616-.225.685-.337 1.453-.337 2.305h5.26z" fill="#2B2A29"/></svg>