<svg width="68" height="48" fill="none" xmlns="http://www.w3.org/2000/svg"><path d="M22.837 25.484H44.25a1.219 1.219 0 000-2.437H22.837a1.219 1.219 0 100 2.437zm0-3.453H44.25a1.22 1.22 0 000-2.437H22.837a1.219 1.219 0 100 2.437z" fill="#1C1B18"/><path d="M48.798 28.328h7.375a4.672 4.672 0 100-9.344h-6.04a1.181 1.181 0 00-1.197.945l-1.334 6.878a1.296 1.296 0 00.674 1.385c.162.083.34.13.522.136zm2.34-6.906h5.035a2.235 2.235 0 010 4.468h-5.898l.863-4.468zm-40.224 6.906h7.374a1.29 1.29 0 001.197-1.52l-1.333-6.867a1.192 1.192 0 00-1.197-.956h-6.041a4.672 4.672 0 000 9.343zm0-6.906h5.035l.863 4.469h-5.898a2.234 2.234 0 110-4.469z" fill="#EB2629"/><path d="M10.555 4.194L6.617 14.956a5.38 5.38 0 00-4.71 5.299v10.293a1.747 1.747 0 00-1.423 1.727v4.794a1.866 1.866 0 001.814 1.822h.246l.036 5.06a3.28 3.28 0 00.964 2.31c.601.605 1.417.95 2.27.958h.025l5.464-.081a3.23 3.23 0 003.212-3.25l-.035-4.997h39.013l.036 5.06c.004.867.35 1.697.965 2.31.6.605 1.416.95 2.27.958h.024l5.464-.081a3.237 3.237 0 002.281-.987 3.163 3.163 0 00.931-2.273l-.035-4.987h.273a1.866 1.866 0 001.814-1.823v-4.793a1.747 1.747 0 00-1.422-1.727V20.255a5.359 5.359 0 00-4.71-5.277l-3.92-10.784A5.623 5.623 0 0052.236.5H15.763a5.598 5.598 0 00-5.208 3.694zm.731 40.524l-5.464.064h-.004a.843.843 0 01-.563-.274.768.768 0 01-.237-.552l-.036-5.065h7.06l.036 4.994a.823.823 0 01-.792.832zm51.511-.282a.832.832 0 01-.563.273l-5.464.072h-.006a.84.84 0 01-.56-.274.767.767 0 01-.238-.551l-.035-5.065h7.06l.036 4.995a.754.754 0 01-.23.55zM65.078 33v3.453H2.922V33h62.156zm-43.34-2.438l1.083-1.625h21.3l1.085 1.625H21.737zm41.918-10.307v10.308H48.21l-2.475-3.496a1.279 1.279 0 00-.99-.567H22.197a1.28 1.28 0 00-.989.567l-2.475 3.495H4.343V20.255A2.963 2.963 0 017.3 17.359h53.4a2.963 2.963 0 012.956 2.896zM55.154 5.018l3.583 9.904H9.263l3.583-9.903a3.148 3.148 0 012.917-2.082h36.473a3.147 3.147 0 012.918 2.081z" fill="#1C1B18"/></svg>