<svg width="92" height="92" fill="none" xmlns="http://www.w3.org/2000/svg"><path d="M82.634 38.61h0a6.855 6.855 0 015.635 6.744v13.614H3.829V23.046c0-1.08.874-1.954 1.953-1.954h46.429c1.668 0 3.28.61 4.534 1.712 0 0 0 0 0 0l15.66 13.808.208.185.275.05 9.746 1.762z" fill="#fff" stroke="#000" stroke-width="2"/><path d="M8.467 34.85v-9.114h27.189v9.114H8.467zm45.214-8.565l9.706 8.565H42.296v-9.114h9.91a2.24 2.24 0 011.475.549z" fill="#fff" stroke="#000" stroke-width="2"/><path d="M89.167 58.877H2.83a2.83 2.83 0 000 5.66h86.34A2.833 2.833 0 0092 61.706a2.832 2.832 0 00-2.833-2.83z" fill="#1C1B18"/><path d="M83.904 62.923a8.984 8.984 0 00-8.985-8.985 8.985 8.985 0 108.985 8.985z" fill="#40596B"/><path d="M79.647 62.923a4.73 4.73 0 00-4.726-4.729 4.728 4.728 0 000 9.457 4.73 4.73 0 004.726-4.728z" fill="#fff"/><path d="M25.526 62.923a8.984 8.984 0 00-8.985-8.985 8.984 8.984 0 00-8.985 8.985 8.984 8.984 0 008.985 8.985 8.983 8.983 0 008.985-8.985z" fill="#40596B"/><path d="M21.269 62.923a4.73 4.73 0 00-4.729-4.729 4.73 4.73 0 000 9.457 4.73 4.73 0 004.729-4.728z" fill="#fff"/><path d="M90.584 46.478h-4.65v8.236h4.65v-8.236zm-84.422 0h-4.65v8.236h4.65v-8.236z" fill="#EB2629"/><path d="M46.05 40.728h-2.57a2.188 2.188 0 01-2.186-2.187h6.944a2.187 2.187 0 01-2.187 2.187z" fill="#40596B"/></svg>