<svg width="71" height="71" fill="none" xmlns="http://www.w3.org/2000/svg"><path d="M50.578 25.894v0a2.458 2.458 0 01-2.458 2.459H22.88a2.46 2.46 0 01-2.459-2.459V2.958A2.46 2.46 0 0122.88.5h25.24a2.458 2.458 0 012.46 2.458v22.936z" fill="#EB2629" stroke="#000"/><path d="M46.792 21.927l9.444.433.136-2.97-9.444-.433-.136 2.97zM24.07 18.961l-9.444.433.137 2.97 9.443-.433-.136-2.97z" fill="#1C1B18"/><path d="M49.09 31.217l.001.011.001.012 1.174 19.02c.115 3.166-2.135 6.031-5.477 6.787h0a42.015 42.015 0 01-18.574 0h0c-3.343-.756-5.596-3.622-5.477-6.787l1.17-19.02v-.022c.107-2.734 1.964-5.166 4.75-6.1 0 0 0 0 0 0l8.843-2.964 8.84 2.964h0c2.786.934 4.643 3.366 4.75 6.1z" fill="#fff" stroke="#000" stroke-width="2"/><path d="M31.64 26.54c0-2.134.15-4.154.418-5.968h6.883a41.17 41.17 0 01.42 5.969c0 4.039-.536 7.656-1.375 10.23-.421 1.292-.901 2.265-1.386 2.895-.496.643-.876.782-1.099.782-.224 0-.605-.14-1.1-.783-.486-.63-.966-1.602-1.387-2.895-.84-2.573-1.375-6.19-1.375-10.23z" fill="#fff" stroke="#000" stroke-width="2"/><path d="M35.501 45.836a4.556 4.556 0 00-4.556 4.556v16.055A4.553 4.553 0 0035.501 71a4.553 4.553 0 004.553-4.553V50.392a4.555 4.555 0 00-4.553-4.556z" fill="#415A6B"/><path d="M41.372 50.141v7.527c-3.895.55-7.847.55-11.743 0V50.14a5.872 5.872 0 1111.743 0z" fill="#fff" stroke="#000" stroke-width="2"/><path d="M49.099 22.624H21.9v-4.08a87.616 87.616 0 0127.199 0v4.08z" fill="#1C1B18" stroke="#000"/><path d="M42.287 20.053a6.786 6.786 0 11-13.572 0 6.785 6.785 0 016.783-6.786 6.786 6.786 0 016.79 6.786z" fill="#1C1B18" stroke="#000"/><path d="M39.693 20.053a4.194 4.194 0 11-4.192-4.195 4.194 4.194 0 014.192 4.195z" fill="#fff" stroke="#000"/></svg>