<svg width="91" height="91" fill="none" xmlns="http://www.w3.org/2000/svg"><g clip-path="url(#clip0)"><path d="M77.563 29.288h-18.79v34.056H89.56V48.016l-3.59-12.41a8.75 8.75 0 00-8.406-6.318z" fill="#EB2629"/><path d="M85.065 47.858l-3.2-11.06a4.503 4.503 0 00-4.302-3.233H63.05v14.293h22.015z" fill="#fff"/><path d="M85.065 47.858l-3.2-11.06a4.503 4.503 0 00-4.302-3.233H63.05l22.015 14.293z" fill="#F2F2F2"/><path d="M5.687 13.19h47.4a4.688 4.688 0 014.686 4.688v44.464H1V17.878a4.687 4.687 0 014.687-4.687z" fill="#fff" stroke="#1C1B18" stroke-width="2"/><path d="M91 63.34v6.426H.008V63.34h9.497a13.006 13.006 0 0111.374-6.673c4.872 0 9.137 2.692 11.374 6.673h30.558a12.972 12.972 0 0111.354-6.673c4.89 0 9.137 2.692 11.374 6.673H91z" fill="#1C1B18"/><path d="M83.247 69.727a9.082 9.082 0 01-9.083 9.082c-5.016 0-9.078-4.066-9.078-9.082a9.08 9.08 0 1118.16 0z" fill="#40596B"/><path d="M77.816 69.727a3.65 3.65 0 01-7.298 0 3.648 3.648 0 013.65-3.648 3.647 3.647 0 013.647 3.648z" fill="#fff"/><path d="M29.954 69.727a9.083 9.083 0 01-18.165 0 9.082 9.082 0 0118.165 0z" fill="#40596B"/><path d="M24.519 69.727a3.648 3.648 0 11-7.297-.001 3.648 3.648 0 017.297 0z" fill="#fff"/></g><defs><clipPath id="clip0"><path fill="#fff" d="M0 0h91v91H0z"/></clipPath></defs></svg>