<svg width="197" height="41" fill="none" xmlns="http://www.w3.org/2000/svg"><path d="M28.138 33.65c.42.63.46 1.338.12 2.12-.251.577-.678 1.121-1.28 1.632-.814.696-1.804 1.224-2.97 1.583a10.755 10.755 0 01-3.171.473h-9.792l3.188-7.324h10.15c.304 0 .606-.044.904-.13.416-.131.677-.322.786-.572.11-.25.01-.435-.296-.554a2.165 2.165 0 00-.79-.131H14.835l3.788-3.05h7.332c1.097 0 2.02.163 2.768.489.838.37 1.36.907 1.562 1.615.153.522.102 1.077-.154 1.663-.35.805-1.015 1.534-1.994 2.187zm-5.083 1.533h-6.5l-.54 1.24h6.5a5.58 5.58 0 001.126-.114c.547-.109.87-.277.97-.506.099-.228-.078-.397-.53-.506a4.213 4.213 0 00-1.026-.114zm9.913 4.29l3.527-3.05h4.904l-1.208-4.225-8.462 7.275h-4.512l12.078-10.456c.39-.348.854-.653 1.391-.913.59-.283 1.103-.424 1.537-.424.446 0 .835.14 1.168.424.293.25.486.554.58.913l2.797 10.456h-13.8zm31.804 0h-5.295l-2.267-2.952h-5.02l-1.285 2.952h-3.65l2.613-6.002h10.134c.62 0 1.17-.093 1.653-.278.614-.24 1.024-.592 1.227-1.06.397-.914-.17-1.37-1.701-1.37H51.048l3.706-3.051h7.413c1.836 0 3.173.348 4.01 1.044.937.794 1.085 1.925.447 3.393-.36.826-.944 1.574-1.75 2.243a8.696 8.696 0 01-2.814 1.541l2.712 3.54zm20.173-11.76L74.55 35.575l-1.697 3.898h-3.65l1.705-3.914-3.77-7.846h4.66l2.319 4.78 6.185-4.78h4.644zm15.675 0l-3.674 3.05h-8.31c-.445 0-.737.158-.874.473-.137.316.017.473.462.473h5.98c1.423 0 2.461.349 3.114 1.045.667.739.744 1.696.233 2.87-.506 1.164-1.415 2.105-2.727 2.822a8.093 8.093 0 01-4 1.028H80.073l3.666-3.034h8.407c.38 0 .751-.065 1.112-.196.462-.163.754-.386.877-.669.128-.294.03-.517-.295-.669-.246-.108-.564-.163-.956-.163h-5.98c-1.324 0-2.3-.304-2.925-.913-.672-.652-.774-1.517-.305-2.594.473-1.087 1.33-1.957 2.57-2.61a7.866 7.866 0 013.721-.913h10.656z" fill="#1C1B18"/><path d="M120.206 39.484l3.529-3.051h4.904l-1.208-4.225-8.463 7.276h-18.349l6.414-3.082h10.982l1.295-1.12h-11.226l5.318-3.051h9.432l1.722-1.492h-10.105l5.319-3.05h9.526v.007c.057-.004.112-.007.166-.007.446 0 .835.142 1.168.425.294.25.487.555.58.913l2.798 10.457h-13.802zm32.41-5.35c-1.552 3.567-4.772 5.35-9.661 5.35h-.766c-4.889 0-6.556-1.784-5.004-5.35l2.791-6.413h3.634l-2.791 6.412c-.463 1.066-.295 1.751.507 2.055.424.174 1.407.261 2.95.261 1.228 0 2.159-.13 2.794-.391.853-.337 1.485-.98 1.897-1.925l2.79-6.412h3.65l-2.791 6.412zm17.766-6.413l-3.691 3.051h-3.519l-3.793 8.712h-3.649l3.792-8.712h-4.841l3.675-3.05h12.026zm13.375 5.775c-.749 1.72-2.041 3.147-3.876 4.283-1.837 1.137-3.777 1.705-5.819 1.705h-3.536c-2.053 0-3.503-.568-4.35-1.705-.848-1.136-.896-2.564-.149-4.283.749-1.718 2.02-3.11 3.814-4.176a11.173 11.173 0 015.804-1.599h3.537c2.075 0 3.543.534 4.404 1.6.862 1.065.918 2.457.171 4.175zm-5.904-2.724h-3.535a5.39 5.39 0 00-2.845.808c-.886.538-1.512 1.226-1.876 2.064-.365.837-.333 1.514.094 2.031.426.517 1.146.775 2.157.775h3.535a5.484 5.484 0 002.831-.775c.876-.517 1.497-1.194 1.861-2.031.365-.838.335-1.526-.088-2.064-.421-.538-1.134-.808-2.134-.808z" fill="#EB2629"/><path fill-rule="evenodd" clip-rule="evenodd" d="M129.994 18.015c-3.144.125-4.969-1.72-8.993-3.906-17.83-9.684-32.171-12.126-52.132-9.184-3.984.587-19.03 2.993-21.614 4.304.37 1.458 2.83 5.952 3.774 6.809 2.146 1.948 5.883 1.79 9.006 2.008 6.678.465 13.457.81 20.168.948 14.24.297 28.433.118 42.647-.425 28.222-1.078 43.533-2.721 70.057 7.888 2.767 1.107 2.95.935 3.103 2.297-1.162.547-7.169-2.276-9.189-2.953-22.488-7.536-35.563-6.606-58.365-5.516-8.459.404-16.935.648-25.416.802-16.992.308-34.022.012-50.878-1.386-13.163-1.093-24.01-2.446-37.4-1.833-6.532.3-10.628 1.886-10.035-2.678 10.572-.29 5.458 1.08 16.952-2.015 14.81-3.99 33.027-8.36 48.093-10.338 13.023-1.708 22.003-1.62 34.059 2.176 7.202 2.267 18.261 7.192 24.769 11.604 1.488 1.009.748.19 1.394 1.398zM.97 26.531c1.28-.466 9.455.15 8.119-3.035-.762-1.817-4.613-1.049-6.138-3.457 1.538.224 3.196.865 4.812 1.289 1.556.408 2.993 1.286 2.53 3.114-.385 1.523-1.69 2.458-3.56 2.643L.97 26.53z" fill="#1C1B18"/><path fill-rule="evenodd" clip-rule="evenodd" d="M128.501 16.606c-3.168.125-5.008-1.72-9.064-3.906C101.466 3.015 87.011.574 66.891 3.516c-4.015.587-19.18 2.993-21.785 4.304.374 1.457 2.852 5.951 3.803 6.809 2.164 1.947 5.93 1.79 9.078 2.007 6.73.466 13.563.81 20.328.95 14.352.295 28.657.117 42.984-.426 28.446-1.078 43.879-2.722 70.612 7.888 2.789 1.107 2.973.935 3.128 2.297-1.171.546-7.227-2.276-9.262-2.953-22.667-7.536-35.844-6.607-58.828-5.516-8.526.404-17.069.648-25.617.802-17.127.307-34.291.012-51.28-1.387-13.267-1.092-24.2-2.445-37.696-1.832-6.584.3-10.712 1.886-10.114-2.678 10.655-.29 5.501 1.08 17.086-2.016C34.254 7.776 52.617 3.405 67.8 1.428 80.927-.28 89.978-.192 102.13 3.604c7.259 2.266 18.405 7.192 24.965 11.604 1.5 1.008.754.19 1.405 1.397l.001.001z" fill="#EB2629"/><path fill-rule="evenodd" clip-rule="evenodd" d="M108.014 14.65c-.67-5.774 5.539-4.106 6.854-1.897 3.328 5.592-3.51 2.104-3.511 2.104-.779-.156-2.448-.144-3.344-.208l.001.001zM.97 26.31c1.28-.467 9.455.15 8.119-3.036-.762-1.817-4.613-1.049-6.138-3.457 1.538.224 3.196.865 4.812 1.289 1.556.408 2.993 1.286 2.53 3.114-.385 1.523-1.69 2.458-3.56 2.642L.97 26.31z" fill="#EB2629"/></svg>