<svg xmlns="http://www.w3.org/2000/svg" xmlns:xlink="http://www.w3.org/1999/xlink" id="workspace" style="width:100%" width="420" height="156" viewBox="0 -38 420 156" text-rendering="geometricprecision"><defs><linearGradient x1="0" y1=".5" x2="1" y2=".5" id="linearGradientSk9jsn22f1c"><stop offset="1.66%" stop-color="#FFF"/><stop offset="62.09%" stop-color="#FFF"/><stop offset="100%" stop-color="#FFF"/></linearGradient><linearGradient x1="0" y1=".5" x2="1" y2=".5" id="linearGradientSk9jsn22f1m"><stop offset="0%" stop-color="#FFF"/><stop offset="100%" stop-color="#FFF"/></linearGradient><linearGradient x1="0" y1=".5" x2="1" y2=".5" id="linearGradientSk9jsn22f1w"><stop offset="1.66%" stop-color="#FFF"/><stop offset="62.09%" stop-color="#FFF"/><stop offset="100%" stop-color="#FFF"/></linearGradient><linearGradient x1="0" y1=".5" x2="1" y2=".5" id="linearGradientSk9jsn22f20"><stop offset="0%" stop-color="#FFF"/><stop offset="100%" stop-color="#FFF"/></linearGradient><linearGradient x1="0" y1=".5" x2="1" y2=".5" id="linearGradientSk9jsn22f26"><stop offset="1.66%" stop-color="#FFF"/><stop offset="62.09%" stop-color="#FFF"/><stop offset="100%" stop-color="#FFF"/></linearGradient><linearGradient x1="0" y1=".5" x2="1" y2=".5" id="linearGradientSk9jsn22f2a"><stop offset="0%" stop-color="#FFF"/><stop offset="100%" stop-color="#FFF"/></linearGradient><linearGradient x1="0" y1=".5" x2="1" y2=".5" id="linearGradientSk9jsn22f2j"><stop offset="0%" stop-color="#FFF"/><stop offset="100%" stop-color="#FFF"/></linearGradient></defs><g class="svg-clip svg-visible" transform="translate(250 -46) scale(1.7273)" cursor="move"><path fill="none" class="svg-hitbox" d="M0 0h58v99H0z"/><svg width="58.958" height="99.877" viewBox="0 0.062 58.958 99.877"><path d="M53.935 12.501L17.941 48.496a2.032 2.032 0 000 2.873l36.017 36.017-7.553 7.553-38.859-38.86a8.693 8.693 0 010-12.294L46.269 5.062l7.666 7.439z" fill="url('#linearGradientSk9jsn22f26')"/></svg></g><g class="svg-clip svg-visible" transform="translate(355 -14) scale(1.7273)" cursor="move"><path fill="none" class="svg-hitbox" d="M0 0h40v62H0z"/><svg width="40.288" height="62.508" viewBox="59.712 18.618 40.288 62.508"><path d="M64.763 68.686L82.059 51.39a2.032 2.032 0 000-2.873L64.712 31.171l7.553-7.553 20.189 20.189a8.693 8.693 0 010 12.294L72.43 76.126l-7.667-7.44z" fill="url('#linearGradientSk9jsn22f2a')"/></svg></g><path d="M-52.44-46.48v5.76q0 4.34-1.08 7.76-1.07 3.42-2.9 6.03-1.83 2.61-4.22 4.47-2.4 1.85-5.01 3.03-2.61 1.17-5.27 1.71-2.66.53-5.01.53h-28.71v-12.69h28.71q2.44-.2 4.42-1 1.98-.81 3.39-2.18 1.42-1.36 2.2-3.29.78-1.93.78-4.37v-5.76q-.24-2.4-1.02-4.4-.78-2-2.13-3.42-1.34-1.41-3.24-2.22-1.91-.8-4.4-.8h-28.61q-2.54 0-3.86 1.31-1.32 1.32-1.32 3.81V0h-12.69v-52.2q0-4.88 1.78-8.3 1.78-3.42 4.44-5.52 2.66-2.1 5.79-3.05 3.12-.95 5.76-.95h28.71q4.3 0 7.72 1.1 3.41 1.1 6.03 2.93 2.61 1.83 4.44 4.22 1.83 2.39 3.03 5.01 1.19 2.61 1.73 5.27.54 2.66.54 5.01zm80.715 5.76v11.42q0 6.4-2.23 11.77-2.22 5.37-6.12 9.25-3.91 3.89-9.28 6.08Q5.275 0-1.025 0h-34.28q-1.37 0-2.54-.49t-2.02-1.34q-.86-.86-1.35-2.03-.48-1.17-.48-2.54v-57.22q0-1.32.48-2.49.49-1.18 1.35-2.05.85-.88 2.02-1.37 1.17-.49 2.54-.49h34.28q6.3 0 11.67 2.2 5.37 2.19 9.28 6.08 3.9 3.88 6.12 9.27 2.23 5.4 2.23 11.75zm-12.7 11.42v-11.42q0-3.71-1.2-6.79-1.19-3.08-3.39-5.25t-5.25-3.37q-3.05-1.19-6.76-1.19h-27.98v44.62h27.98q3.71 0 6.76-1.19 3.05-1.2 5.25-3.37t3.39-5.23q1.2-3.05 1.2-6.81zM122.22-64.6V0h-12.8v-41.7L86.91-2.1Q86.08-.59 84.6.2q-1.49.78-3.2.78-1.66 0-3.1-.78-1.44-.79-2.27-2.3L53.42-41.7V0h-12.7v-64.6q0-2.2 1.3-3.91 1.29-1.7 3.39-2.29 1.03-.24 2.05-.17 1.03.07 1.98.44.95.36 1.73 1.02t1.32 1.59L81.4-17.68l28.9-50.24q1.13-1.86 3.1-2.64 1.98-.78 4.13-.24 2.05.59 3.37 2.29 1.32 1.71 1.32 3.91z" data-textpath="PDM" data-text-anchor="middle" data-font-size="100" data-letterspacing="0" data-side="left" data-offset="0" data-dx="0" data-dy="95.618" data-font="Audiowide" data-font-src="/Content/clientfonts/audiowide.woff" data-font-scale="contain" transform="translate(125 72.77) scale(.9493)" data-xmlspace="preserve" fill="url('#linearGradientSk9jsn22f2j')" pointer-events="fill" cursor="move"/></svg>