<svg width="270" height="56" fill="none" xmlns="http://www.w3.org/2000/svg"><path d="M10.984 22.238l25.12-11.183" stroke="#82C2EB" stroke-width=".907" stroke-miterlimit="10"/><path d="M65.233 32.566h-3.469v-4.841h-3.607v4.84h-3.469v-12.24h3.469v4.562h3.607v-4.562h3.469v12.242zm1.094-6.029c0-1.086.166-2.037.501-2.851.334-.814.771-1.493 1.315-2.037a5.432 5.432 0 011.874-1.233 5.887 5.887 0 012.176-.42c1.738 0 3.11.532 4.12 1.596 1.009 1.063 1.514 2.626 1.514 4.69 0 .2-.008.422-.023.662-.016.241-.03.454-.047.64H69.89c.078.714.41 1.28 1 1.7.589.419 1.38.627 2.374.627.636 0 1.26-.057 1.874-.174.613-.116 1.112-.26 1.5-.431l.467 2.816a4.75 4.75 0 01-.744.28c-.311.092-.657.174-1.037.244-.38.07-.788.128-1.221.173-.434.047-.87.07-1.303.07-1.102 0-2.06-.164-2.873-.489-.814-.325-1.49-.773-2.025-1.337a5.303 5.303 0 01-1.186-2.013 7.867 7.867 0 01-.389-2.513zm8.146-1.325a3.583 3.583 0 00-.151-.861 2.172 2.172 0 00-.395-.745 2.123 2.123 0 00-.675-.536c-.272-.139-.61-.21-1.012-.21-.389 0-.722.067-1 .198-.28.133-.512.307-.698.524-.186.216-.33.468-.431.756a5.06 5.06 0 00-.221.873h4.583zm15.594-4.888v12.242h-3.491c0-.775.008-1.548.023-2.315.014-.77.03-1.479.047-2.13.016-.65.034-1.22.057-1.711.022-.489.035-.849.035-1.082-.45.636-.9 1.28-1.35 1.933-.45.65-.882 1.292-1.293 1.92-.41.628-.8 1.23-1.163 1.804a43.725 43.725 0 00-.966 1.583h-3.049V20.326h3.468a143.09 143.09 0 01-.092 5.645c-.016.427-.022.756-.022.99.93-1.367 1.79-2.592 2.573-3.678a49.885 49.885 0 012.292-2.955h2.931v-.004zm-5.54-1.677c-.497 0-.974-.074-1.432-.221a4.068 4.068 0 01-1.245-.65 3.608 3.608 0 01-.919-1.048 3.323 3.323 0 01-.431-1.407l2.397-.628c.125.59.33 1.009.617 1.258.289.248.624.372 1.013.372.403 0 .748-.112 1.037-.337.286-.225.493-.648.617-1.268l2.375.628a3.33 3.33 0 01-.432 1.409 3.544 3.544 0 01-.908 1.035c-.364.28-.78.493-1.245.64a4.882 4.882 0 01-1.444.217zm18.596 7.798c0 .947-.116 1.808-.35 2.583-.233.775-.574 1.444-1.024 2.002a4.608 4.608 0 01-1.675 1.303c-.667.31-1.436.464-2.305.464-.48 0-.93-.047-1.35-.14a6.505 6.505 0 01-1.21-.396v4.608H91.74v-16.13c.31-.092.667-.182 1.072-.268.403-.086.826-.16 1.268-.221a25.44 25.44 0 011.35-.151c.457-.04.895-.058 1.314-.058 1.009 0 1.909.152 2.7.454.791.303 1.458.73 2.002 1.28.542.55.957 1.222 1.246 2.013.288.794.431 1.68.431 2.657zm-3.538.092c0-1.07-.241-1.929-.722-2.571-.48-.644-1.194-.965-2.141-.965-.31 0-.597.012-.861.034-.264.023-.48.052-.653.082v6.26c.217.14.502.256.851.35.35.094.702.14 1.06.14 1.644-.003 2.466-1.111 2.466-3.33zm16.083-.117c0 .961-.139 1.843-.419 2.642-.28.8-.683 1.483-1.211 2.048a5.45 5.45 0 01-1.898 1.315c-.736.31-1.562.466-2.479.466-.899 0-1.717-.155-2.456-.466a5.469 5.469 0 01-1.898-1.315 6.023 6.023 0 01-1.233-2.047c-.294-.8-.442-1.68-.442-2.643 0-.961.152-1.838.454-2.63a5.958 5.958 0 011.258-2.024 5.64 5.64 0 011.908-1.303 6.137 6.137 0 012.409-.467c.884 0 1.696.156 2.432.467.736.31 1.37.744 1.898 1.302a5.89 5.89 0 011.233 2.025c.297.792.444 1.669.444 2.63zm-3.538 0c0-1.071-.213-1.912-.64-2.526-.428-.613-1.035-.92-1.826-.92-.792 0-1.405.307-1.839.92-.434.614-.65 1.455-.65 2.526 0 1.072.216 1.92.65 2.548.434.628 1.047.943 1.839.943.791 0 1.4-.315 1.826-.943.427-.627.64-1.476.64-2.548zm14.52-3.258h-3.91v9.404h-3.468v-9.404h-3.911v-2.838h11.287v2.838h.002zm11.895 3.283c0 .947-.117 1.808-.35 2.583-.233.775-.574 1.444-1.024 2.002a4.616 4.616 0 01-1.675 1.303c-.667.31-1.436.464-2.305.464-.481 0-.931-.047-1.35-.14a6.524 6.524 0 01-1.211-.396v4.608h-3.468v-16.13a14.14 14.14 0 011.071-.268c.403-.086.827-.16 1.268-.221a24.97 24.97 0 011.35-.151 15.1 15.1 0 011.315-.058c1.008 0 1.908.152 2.7.454.791.303 1.458.73 2.002 1.28.542.55.957 1.222 1.245 2.013.287.794.432 1.68.432 2.657zm-3.538.092c0-1.07-.241-1.929-.722-2.571-.481-.644-1.194-.965-2.141-.965-.311 0-.597.012-.861.034a7.302 7.302 0 00-.653.082v6.26c.217.14.501.256.851.35.35.094.702.14 1.059.14 1.643-.003 2.467-1.111 2.467-3.33zm4.049 0c0-1.086.166-2.037.501-2.851.334-.814.771-1.493 1.315-2.037a5.43 5.43 0 011.874-1.233 5.883 5.883 0 012.176-.42c1.738 0 3.11.532 4.121 1.596 1.008 1.063 1.513 2.626 1.513 4.69 0 .2-.008.422-.023.662-.016.241-.03.454-.047.64h-7.867a2.31 2.31 0 001 1.7c.589.419 1.38.627 2.374.627.636 0 1.26-.057 1.874-.174.613-.116 1.112-.26 1.501-.431l.466 2.816a4.771 4.771 0 01-.744.28c-.311.092-.657.174-1.037.244-.381.07-.788.128-1.221.173-.434.047-.869.07-1.303.07-1.102 0-2.059-.164-2.873-.489-.814-.325-1.489-.773-2.025-1.337a5.291 5.291 0 01-1.186-2.013 7.804 7.804 0 01-.389-2.513zm8.146-1.325a3.612 3.612 0 00-.151-.861 2.172 2.172 0 00-.395-.745 2.124 2.124 0 00-.675-.536c-.272-.139-.609-.21-1.012-.21-.389 0-.722.067-1 .198a2.067 2.067 0 00-.698.524 2.31 2.31 0 00-.429.756 4.988 4.988 0 00-.221.873h4.581zm14.989 7.354h-3.469v-4.841h-3.607v4.84h-3.469v-12.24h3.469v4.562h3.607v-4.562h3.469v12.242zm6.074-12.57c1.024 0 1.877.117 2.56.35.683.233 1.229.567 1.64 1 .412.436.702.961.874 1.583.17.62.255 1.311.255 2.072v7.215c-.497.108-1.186.237-2.071.385-.884.147-1.955.22-3.211.22-.792 0-1.509-.07-2.154-.21-.644-.14-1.198-.368-1.664-.687a3.124 3.124 0 01-1.072-1.246c-.248-.511-.372-1.141-.372-1.885 0-.714.143-1.32.431-1.816a3.305 3.305 0 011.152-1.187 5.213 5.213 0 011.652-.64 9.204 9.204 0 011.933-.198c.45 0 .851.02 1.198.057.35.039.632.09.851.151v-.325c0-.589-.178-1.063-.536-1.42-.358-.355-.977-.535-1.861-.535-.589 0-1.172.043-1.746.129a7.599 7.599 0 00-1.489.36l-.442-2.794a12.876 12.876 0 011.746-.384c.356-.055.733-.1 1.129-.14a13.91 13.91 0 011.197-.055zm.28 10.148c.341 0 .667-.008.978-.022a6.43 6.43 0 00.744-.07v-2.63a6.493 6.493 0 00-.628-.092 6.843 6.843 0 00-1.687.012c-.288.04-.54.113-.757.221a1.287 1.287 0 00-.511.442c-.125.186-.186.42-.186.698 0 .544.182.918.546 1.128.364.21.863.313 1.501.313zm5.213 2.422a38.692 38.692 0 012.403-3.475 44.926 44.926 0 012.636-3.078 49.587 49.587 0 01-2.671-2.961 57.841 57.841 0 01-2.135-2.728h4.058c.403.57.887 1.229 1.452 1.977.564.749 1.305 1.694 2.219 2.835v-4.812h3.374v4.828a55.571 55.571 0 002.258-2.843l1.444-1.985h4.002a29.212 29.212 0 01-2.02 2.728 39.334 39.334 0 01-2.716 2.939 43.601 43.601 0 011.497 1.666c.441.522.859 1.037 1.253 1.55.395.514.769 1.046 1.127 1.598.356.552.728 1.14 1.115 1.76h-3.857a73.788 73.788 0 00-4.103-5.556v5.557h-3.374V27.05a341.5 341.5 0 01-2.258 2.965 46.104 46.104 0 00-1.839 2.549h-3.865v.002z" fill="#010101"/><path d="M192.424 26.537c0-1.086.166-2.037.501-2.851.333-.814.771-1.493 1.315-2.037a5.436 5.436 0 011.873-1.233 5.891 5.891 0 012.176-.42c1.739 0 3.111.532 4.121 1.596 1.009 1.063 1.514 2.626 1.514 4.69 0 .2-.008.422-.023.662-.016.241-.03.454-.047.64h-7.865c.077.714.411 1.28 1 1.7.589.419 1.38.627 2.374.627.636 0 1.26-.057 1.873-.174.614-.116 1.113-.26 1.502-.431l.466 2.816a4.75 4.75 0 01-.745.28c-.31.092-.656.174-1.036.244-.381.07-.788.128-1.221.173-.434.047-.87.07-1.303.07-1.102 0-2.06-.164-2.874-.489-.814-.325-1.488-.773-2.024-1.337a5.291 5.291 0 01-1.186-2.013c-.264-.775-.391-1.613-.391-2.513zm8.146-1.325a3.613 3.613 0 00-.152-.861 2.153 2.153 0 00-.394-.745 2.124 2.124 0 00-.675-.536c-.272-.139-.61-.21-1.013-.21-.388 0-.721.067-1 .198-.28.133-.511.307-.697.524a2.371 2.371 0 00-.432.756c-.1.287-.173.579-.22.873h4.583zm15.827 1.233c0 .947-.117 1.808-.35 2.583-.233.775-.574 1.444-1.024 2.002a4.616 4.616 0 01-1.675 1.303c-.667.31-1.436.464-2.305.464-.481 0-.931-.047-1.35-.14a6.524 6.524 0 01-1.211-.396v4.608h-3.468v-16.13c.311-.092.667-.182 1.071-.268.403-.086.827-.16 1.268-.221a24.97 24.97 0 011.35-.151 15.1 15.1 0 011.315-.058c1.008 0 1.908.152 2.7.454.791.303 1.458.73 2.002 1.28.542.55.957 1.222 1.245 2.013.287.794.432 1.68.432 2.657zm-3.538.092c0-1.07-.241-1.929-.722-2.571-.481-.644-1.194-.965-2.141-.965-.311 0-.597.012-.861.034a7.302 7.302 0 00-.653.082v6.26c.217.14.501.256.851.35.35.094.702.14 1.059.14 1.643-.003 2.467-1.111 2.467-3.33zm8.099-1.861a5.34 5.34 0 01.85-.152c.35-.039.749-.057 1.199-.057.714 0 1.384.086 2.012.256a4.832 4.832 0 011.64.779c.467.35.835.791 1.107 1.327.272.536.407 1.16.407 1.874 0 .713-.125 1.331-.372 1.85a3.29 3.29 0 01-1.072 1.28c-.464.334-1.02.581-1.665.745a8.755 8.755 0 01-2.153.243c-1.025 0-1.964-.05-2.816-.15a21.676 21.676 0 01-2.608-.477v-11.87h3.469v4.352h.002zm1.722 5.468c.636 0 1.137-.12 1.501-.362.364-.239.546-.632.546-1.176 0-.278-.062-.515-.186-.71a1.36 1.36 0 00-.512-.466 2.343 2.343 0 00-.756-.243 5.69 5.69 0 00-.919-.07c-.233 0-.488.017-.768.048a6.31 6.31 0 00-.628.094v2.793c.186.031.433.056.744.07.311.014.636.022.978.022zm10.728 2.422h-3.468V20.324h3.468v12.242z" fill="#010101"/><path d="M253.103 26.142c0 .947-.117 1.808-.35 2.583-.233.775-.574 1.444-1.024 2.002a4.615 4.615 0 01-1.675 1.303c-.667.31-1.436.464-2.305.464-.481 0-.931-.047-1.35-.139a6.524 6.524 0 01-1.211-.397v4.608h-3.468v-16.13c.311-.092.667-.182 1.071-.268.403-.086.827-.16 1.268-.22.442-.062.892-.113 1.35-.152a15.58 15.58 0 011.315-.057c1.009 0 1.908.151 2.7.454.791.302 1.458.73 2.002 1.28.542.55.957 1.221 1.246 2.012.286.796.431 1.68.431 2.657zm-3.538.094c0-1.07-.241-1.928-.722-2.57-.481-.645-1.194-.966-2.141-.966-.311 0-.597.012-.861.035a7.302 7.302 0 00-.653.082v6.26c.217.139.501.255.851.35.35.094.702.139 1.06.139 1.642-.002 2.466-1.11 2.466-3.33z" fill="url(#paint0_linear)"/><path d="M239.585 30.425a2.129 2.129 0 11-4.258 0 2.129 2.129 0 014.258 0z" fill="#76C591"/><path d="M268.055 21.837a6.74 6.74 0 00-2.082-1.164 10.227 10.227 0 00-2.491-.535V16.91h-3.374v3.227c-1.117.125-2.086.36-2.908.71-.823.35-1.498.792-2.025 1.325A5.203 5.203 0 00253.999 24a6.188 6.188 0 00-.385 2.188c0 .806.135 1.569.407 2.28a5.335 5.335 0 001.221 1.886c.542.542 1.223.986 2.037 1.325.814.342 1.757.552 2.829.628v4.26h3.374v-4.26a10.555 10.555 0 002.514-.523 6.422 6.422 0 002.071-1.152 5.443 5.443 0 001.409-1.838c.35-.729.524-1.592.524-2.583 0-.978-.174-1.827-.524-2.549a5.42 5.42 0 00-1.421-1.824zm-7.947 7.54c-.978-.108-1.722-.402-2.234-.883-.511-.48-.769-1.233-.769-2.258 0-1.07.268-1.855.804-2.35.536-.497 1.268-.783 2.199-.86v6.352zm6.108-1.652a2.596 2.596 0 01-.697.965 2.72 2.72 0 01-.965.524 3.668 3.668 0 01-1.072.164v-6.355c.356.017.714.078 1.072.186.356.109.679.283.965.524.286.241.52.562.697.965.178.403.268.908.268 1.514 0 .605-.09 1.11-.268 1.513z" fill="url(#paint1_linear)"/><path d="M55.3 44.569v-5.035H57c.395 0 .718.071.97.212.251.141.44.334.56.575.12.24.182.51.182.806 0 .296-.06.566-.182.81a1.37 1.37 0 01-.556.579c-.25.143-.573.214-.965.214h-1.22v-.54h1.2c.271 0 .488-.047.651-.14a.845.845 0 00.358-.381c.074-.16.113-.34.113-.542a1.24 1.24 0 00-.113-.542.816.816 0 00-.36-.374c-.165-.093-.386-.137-.658-.137h-1.072v4.495h-.61zm5.43.09a1.5 1.5 0 01-.65-.137 1.088 1.088 0 01-.465-.397 1.11 1.11 0 01-.172-.628c0-.217.043-.393.13-.528a.9.9 0 01.34-.319c.144-.075.301-.135.475-.171.172-.04.346-.07.522-.092.229-.031.415-.054.558-.068a.858.858 0 00.315-.08c.067-.036.1-.104.1-.196v-.02c0-.242-.065-.432-.198-.567-.131-.133-.332-.2-.598-.2-.278 0-.494.059-.652.182a1.085 1.085 0 00-.331.388l-.55-.196c.098-.23.229-.41.394-.538.164-.129.346-.219.542-.272a2.29 2.29 0 01.58-.078c.12 0 .259.015.418.043a1.4 1.4 0 01.46.176c.15.088.273.221.37.401.099.18.148.417.148.718v2.489h-.579v-.512h-.03a1.02 1.02 0 01-.197.264 1.136 1.136 0 01-.366.238c-.16.065-.345.1-.564.1zm.088-.522c.229 0 .423-.045.58-.135a.912.912 0 00.483-.798v-.531c-.025.03-.078.057-.162.08a2.47 2.47 0 01-.286.061c-.106.018-.21.033-.313.045l-.243.03a2.324 2.324 0 00-.421.095.742.742 0 00-.315.194.494.494 0 00-.119.35c0 .202.076.354.225.456.15.1.34.153.57.153zm2.468-.532h.62c.014.17.092.301.233.389.14.088.325.133.554.133.233 0 .432-.047.597-.143.166-.096.248-.252.248-.467a.578.578 0 00-.358-.55.928.928 0 00-.401-.077h-.648v-.522h.648c.231 0 .403-.053.513-.157a.525.525 0 00.166-.395.508.508 0 00-.18-.407c-.119-.102-.288-.153-.507-.153a.987.987 0 00-.555.147.48.48 0 00-.233.382h-.609a.915.915 0 01.186-.54c.119-.155.28-.28.483-.368a1.71 1.71 0 01.697-.135c.266 0 .497.047.691.14.197.091.348.216.456.376a.94.94 0 01.16.537c0 .213-.06.387-.18.516a.997.997 0 01-.45.28v.039c.143.01.268.055.372.137a.828.828 0 01.248.317c.059.129.088.274.088.431 0 .23-.062.43-.184.6-.123.17-.293.3-.506.392a1.85 1.85 0 01-.736.14 1.85 1.85 0 01-.718-.131 1.246 1.246 0 01-.503-.366.91.91 0 01-.192-.544zm3.659.964V40.79h1.544c.407 0 .73.092.97.277.239.184.36.425.36.727 0 .23-.068.407-.205.534-.137.125-.311.21-.524.254.14.02.274.067.407.147a.925.925 0 01.458.826.929.929 0 01-.147.518c-.098.153-.24.274-.421.362a1.513 1.513 0 01-.659.133h-1.783zm.552-2.193h.994c.155 0 .288-.022.4-.065a.546.546 0 00.256-.186.48.48 0 00.09-.29.43.43 0 00-.198-.375c-.133-.092-.315-.137-.548-.137h-.994v1.053zm0 1.663h1.23c.2 0 .355-.047.47-.143a.485.485 0 00.17-.389.622.622 0 00-.17-.46c-.115-.112-.27-.167-.47-.167h-1.23v1.159zm3.913-.325l1.82-2.92h.668v3.777h-.58v-2.92l-1.81 2.92h-.68v-3.778h.581v2.92zm3.552.855V40.79h1.544c.407 0 .73.092.97.277.238.184.36.425.36.727 0 .23-.068.407-.205.534-.137.125-.311.21-.524.254.14.02.274.067.407.147.13.078.241.188.327.323a.93.93 0 01.131.503.929.929 0 01-.147.518c-.098.153-.24.274-.421.362a1.514 1.514 0 01-.659.133h-1.783zm.55-2.193h.994c.155 0 .288-.022.4-.065a.546.546 0 00.256-.186.48.48 0 00.09-.29.43.43 0 00-.198-.375c-.133-.092-.315-.137-.548-.137h-.994v1.053zm0 1.663h1.229c.2 0 .356-.047.47-.143a.485.485 0 00.17-.389.622.622 0 00-.17-.46c-.114-.112-.27-.167-.47-.167h-1.23v1.159zm4.444.62a1.5 1.5 0 01-.65-.137 1.087 1.087 0 01-.465-.397 1.109 1.109 0 01-.171-.628c0-.217.043-.393.128-.528a.9.9 0 01.342-.319 1.8 1.8 0 01.474-.171c.172-.04.346-.07.522-.092.229-.031.415-.054.558-.068a.858.858 0 00.315-.08c.068-.036.1-.104.1-.196v-.02c0-.242-.065-.432-.198-.567-.13-.133-.331-.2-.597-.2-.278 0-.495.059-.652.182a1.085 1.085 0 00-.332.388l-.55-.196c.098-.23.23-.41.395-.538a1.49 1.49 0 01.542-.272 2.29 2.29 0 01.578-.078c.121 0 .26.015.42.043.157.029.31.088.46.176.15.088.272.221.37.401.098.18.147.417.147.718v2.489h-.578v-.512h-.031c-.039.082-.105.17-.197.264a1.134 1.134 0 01-.366.238 1.46 1.46 0 01-.564.1zm.09-.522c.229 0 .423-.045.58-.135a.912.912 0 00.483-.798v-.531c-.024.03-.077.057-.161.08a3.11 3.11 0 01-.286.061 6.376 6.376 0 01-.313.045l-.244.03a2.363 2.363 0 00-.421.095.743.743 0 00-.315.194.493.493 0 00-.119.35c0 .202.076.354.225.456a1 1 0 00.57.153zm3.008-3.346v3.778h-.58V40.79h.58zm1.505 1.653v.542h-1.995v-.542h1.996zm1.162 2.204c-.341 0-.64-.08-.896-.243a1.65 1.65 0 01-.599-.68 2.301 2.301 0 01-.215-1.023c0-.393.072-.737.215-1.031.143-.293.344-.522.6-.683.255-.162.554-.244.895-.244.342 0 .64.082.896.244.256.161.456.39.6.683.142.294.214.638.214 1.03 0 .391-.072.733-.215 1.023a1.65 1.65 0 01-.6.681 1.624 1.624 0 01-.895.243zm0-.521c.258 0 .473-.066.64-.198a1.19 1.19 0 00.373-.524c.08-.217.12-.452.12-.703 0-.252-.04-.487-.12-.706a1.184 1.184 0 00-.373-.53c-.167-.135-.38-.202-.64-.202-.258 0-.472.067-.64.202-.166.135-.29.311-.372.53a2.04 2.04 0 00-.12.706c0 .251.04.486.12.703.08.217.204.39.372.524.168.13.38.198.64.198zm2.655-3.336h.58v3.236h1.426V40.79h.58v3.236h1.428V40.79h.58v3.778h-4.594V40.79zm5.153 3.238l-.067 1.624h-.6V44.57h-.49v-.542h1.157zm1.428-.315l1.82-2.92h.669v3.777h-.581v-2.92l-1.81 2.92h-.679v-3.778h.58v2.92zm5.133.934c-.364 0-.677-.08-.94-.24a1.593 1.593 0 01-.608-.68 2.303 2.303 0 01-.213-1.016c0-.387.072-.728.213-1.023a1.65 1.65 0 01.595-.693c.254-.166.552-.25.894-.25a1.8 1.8 0 01.583.098c.192.066.366.172.523.32.158.147.283.34.377.58.094.242.139.538.139.89v.245H98.74v-.5h2.322c0-.213-.043-.404-.127-.571a.982.982 0 00-.36-.397 1.01 1.01 0 00-.546-.145c-.231 0-.431.057-.6.17a1.127 1.127 0 00-.386.443c-.09.182-.135.379-.135.585v.334c0 .286.05.527.15.724.1.196.237.347.413.45.175.102.382.153.617.153.152 0 .291-.023.413-.066a.836.836 0 00.321-.196.881.881 0 00.209-.327l.56.157c-.059.19-.157.358-.296.502a1.432 1.432 0 01-.515.333c-.205.08-.434.12-.69.12zm4.978-.934l1.82-2.92h.669v3.777h-.581v-2.92l-1.81 2.92h-.679v-3.778h.581v2.92zm5.88-2.923v.542h-1.751v3.236h-.581V40.79h2.332zm.847 5.195v-5.193h.56v.6h.069a6.42 6.42 0 01.178-.252c.076-.102.187-.194.33-.276.143-.082.337-.123.585-.123.317 0 .597.08.84.24.241.157.432.384.569.675.135.292.204.636.204 1.032 0 .401-.067.747-.204 1.04a1.61 1.61 0 01-.567.678c-.241.16-.517.24-.834.24-.242 0-.438-.041-.583-.123a1.012 1.012 0 01-.336-.278 3.48 3.48 0 01-.182-.26h-.049v1.996h-.58v.004zm.57-3.305c0 .286.041.536.125.753.084.217.206.386.366.509s.358.184.589.184a.941.941 0 00.607-.192c.164-.13.287-.303.371-.522.081-.219.124-.462.124-.732 0-.266-.041-.505-.122-.72a1.114 1.114 0 00-.366-.509.982.982 0 00-.614-.188.977.977 0 00-.595.178c-.16.118-.282.284-.364.497-.08.212-.121.46-.121.742zm3.886 3.295c-.1 0-.186-.008-.264-.023a.789.789 0 01-.159-.045l.147-.511c.213.055.388.053.53-.004.141-.057.263-.225.366-.507l.108-.295-1.397-3.796h.63l1.041 3.01h.039l1.043-3.01.634.01-1.608 4.318a1.61 1.61 0 01-.267.479c-.107.126-.232.22-.371.284a1.13 1.13 0 01-.472.09zm3.485-5.185h.581v3.236h1.425V40.79h.581v3.236h1.427V40.79h.579v3.778h-4.593V40.79zm5.655 3.778V40.79h.58v1.643h.385l1.358-1.643h.746l-1.523 1.819 1.544 1.957h-.747l-1.239-1.593h-.522v1.593h-.582v.002zm4.298-.855l1.821-2.92h.668v3.777h-.58v-2.92l-1.81 2.92h-.679v-3.778h.58v2.92zm5.097 1.936v-1.623h.315c.076-.08.143-.166.198-.26.056-.094.105-.205.148-.333.04-.13.077-.287.106-.473a9.06 9.06 0 00.078-.675l.128-1.495h2.399v3.236h.581v1.624h-.581v-1.082h-2.793v1.082h-.579zm.973-1.621h1.819v-2.694h-1.279l-.098.953c-.041.395-.092.74-.151 1.035a1.72 1.72 0 01-.291.706zm3.412.54v-.542h.137a.535.535 0 00.282-.068.473.473 0 00.184-.239 1.98 1.98 0 00.109-.477c.026-.204.042-.464.055-.779l.067-1.673h2.518v3.778h-.581v-3.236h-1.387l-.059 1.348a6.205 6.205 0 01-.082.818 2.068 2.068 0 01-.19.591.895.895 0 01-.335.36c-.139.08-.313.12-.524.12h-.194v-.001zm4.17 0l1.071-1.88h.63l-1.071 1.88h-.63zm2.517 0v-3.246h-1.002c-.227 0-.405.053-.534.158a.532.532 0 00-.194.431c0 .182.06.323.176.425.117.103.278.154.483.154h1.219v.542h-1.219c-.256 0-.477-.045-.661-.135a.98.98 0 01-.427-.387 1.15 1.15 0 01-.15-.599c0-.231.054-.431.158-.6.106-.167.256-.296.452-.386.196-.092.429-.135.701-.135h1.553v3.778h-.555zm3.158 1.081v-1.623h.315c.076-.08.143-.166.198-.26.056-.094.105-.205.148-.333.04-.13.077-.287.106-.473a9.06 9.06 0 00.078-.675l.128-1.495h2.399v3.236h.581v1.624h-.581v-1.082h-2.793v1.082h-.579zm.973-1.621h1.819v-2.694h-1.279l-.098.953c-.041.395-.092.74-.151 1.035-.061.295-.158.53-.291.706zm5.332.619a1.78 1.78 0 01-.941-.24 1.597 1.597 0 01-.607-.68 2.304 2.304 0 01-.213-1.016c0-.387.072-.728.213-1.023.141-.296.339-.528.595-.693a1.6 1.6 0 01.894-.25c.196 0 .39.033.583.098.192.066.366.172.523.32.158.147.282.34.377.58.094.242.139.538.139.89v.245h-2.913v-.5h2.322c0-.213-.043-.404-.127-.571a.982.982 0 00-.36-.397 1.015 1.015 0 00-.546-.145 1.05 1.05 0 00-.599.17 1.126 1.126 0 00-.387.443c-.09.182-.135.379-.135.585v.334c0 .286.049.527.149.724.101.196.238.347.413.45.176.102.383.153.618.153.151 0 .291-.023.413-.066a.844.844 0 00.53-.523l.56.157c-.059.19-.157.358-.296.502a1.428 1.428 0 01-.516.333c-.204.08-.433.12-.689.12zm2.094-3.315v-.542h3.07v.542h-1.239v3.236h-.581v-3.236h-1.25zm5.301 3.315c-.364 0-.677-.08-.94-.24a1.593 1.593 0 01-.608-.68 2.304 2.304 0 01-.212-1.016c0-.387.071-.728.212-1.023a1.65 1.65 0 01.595-.693 1.6 1.6 0 01.894-.25 1.8 1.8 0 01.583.098c.192.066.366.172.524.32.157.147.282.34.376.58.094.242.139.538.139.89v.245h-2.912v-.5h2.321c0-.213-.043-.404-.127-.571a.975.975 0 00-.36-.397 1.01 1.01 0 00-.546-.145c-.231 0-.431.057-.599.17a1.126 1.126 0 00-.387.443c-.09.182-.135.379-.135.585v.334c0 .286.049.527.15.724.1.196.237.347.413.45.176.102.382.153.617.153.152 0 .291-.023.413-.066a.848.848 0 00.53-.523l.561.157c-.06.19-.158.358-.297.502a1.432 1.432 0 01-.515.333c-.205.08-.434.12-.69.12zm3.031-.934l1.82-2.92h.669v3.777h-.581v-2.92l-1.81 2.92h-.678v-3.778h.58v2.92zm1.436-4.18h.542a.847.847 0 01-.276.652c-.184.168-.434.254-.749.254-.308 0-.556-.084-.738-.254a.842.842 0 01-.274-.652h.542c0 .129.035.239.106.337.072.096.195.145.366.145.172 0 .297-.049.371-.145a.546.546 0 00.11-.337zm4.64 4.18l1.821-2.92h.668v3.777h-.581v-2.92l-1.809 2.92h-.679v-3.778h.58v2.92zm5.5.855V40.79h1.544c.407 0 .73.092.969.277a.87.87 0 01.36.727c0 .23-.067.407-.204.534-.137.125-.311.21-.524.254.139.02.274.067.407.147a.929.929 0 01.458.826.93.93 0 01-.147.518 1.003 1.003 0 01-.421.362 1.514 1.514 0 01-.659.133h-1.783zm.55-2.193h.994c.155 0 .288-.022.401-.065a.545.545 0 00.255-.186.476.476 0 00.09-.29.429.429 0 00-.198-.375c-.133-.092-.315-.137-.548-.137h-.994v1.053zm0 1.663h1.229c.2 0 .356-.047.47-.143a.483.483 0 00.17-.389.62.62 0 00-.17-.46c-.114-.112-.27-.167-.47-.167h-1.229v1.159zm3.098-.434h.62c.014.17.092.301.233.389.141.088.325.133.554.133.233 0 .432-.047.597-.143.166-.096.248-.252.248-.467a.581.581 0 00-.358-.55.926.926 0 00-.401-.077h-.648v-.522h.648c.231 0 .403-.053.513-.157a.523.523 0 00.166-.395.507.507 0 00-.18-.407c-.118-.102-.288-.153-.507-.153a.98.98 0 00-.554.147.478.478 0 00-.233.382h-.61a.92.92 0 01.186-.54c.119-.155.28-.28.483-.368.204-.09.438-.135.697-.135.266 0 .497.047.692.14.196.091.347.216.456.376a.943.943 0 01.159.537c0 .213-.059.387-.18.516a1 1 0 01-.45.28v.039c.143.01.268.055.372.137a.82.82 0 01.248.317c.059.13.088.274.088.431 0 .23-.061.43-.184.6-.123.17-.293.3-.505.392a1.86 1.86 0 01-.737.14 1.86 1.86 0 01-.717-.131 1.25 1.25 0 01-.504-.366.914.914 0 01-.192-.544zm3.659 2.381v-5.193h.56v.6h.07a5.06 5.06 0 01.178-.252 1.06 1.06 0 01.329-.276c.143-.082.338-.123.585-.123.317 0 .597.08.841.24a1.6 1.6 0 01.568.675c.135.292.205.636.205 1.032 0 .401-.068.747-.205 1.04a1.605 1.605 0 01-.566.678c-.242.16-.518.24-.835.24-.241 0-.437-.041-.583-.123a1.007 1.007 0 01-.335-.278 3.203 3.203 0 01-.182-.26h-.049v1.996h-.581v.004zm.571-3.305c0 .286.041.536.124.753.084.217.207.386.366.509a.94.94 0 00.589.184.944.944 0 00.608-.192 1.19 1.19 0 00.37-.522 2.07 2.07 0 00.125-.732c0-.266-.041-.505-.123-.72a1.107 1.107 0 00-.366-.509.98.98 0 00-.614-.188.979.979 0 00-.595.178 1.095 1.095 0 00-.364.497c-.079.212-.12.46-.12.742zm5.182 1.967c-.34 0-.64-.08-.896-.243a1.652 1.652 0 01-.599-.68 2.304 2.304 0 01-.215-1.023c0-.393.072-.737.215-1.031.143-.293.344-.522.599-.683.256-.162.556-.244.896-.244.341 0 .64.082.896.244.255.161.458.39.599.683.143.294.215.638.215 1.03 0 .391-.072.733-.215 1.023a1.652 1.652 0 01-.599.681 1.644 1.644 0 01-.896.243zm0-.521c.26 0 .472-.066.64-.198a1.18 1.18 0 00.372-.524 2.02 2.02 0 00.121-.703c0-.252-.039-.487-.121-.706a1.199 1.199 0 00-.372-.53c-.168-.135-.38-.202-.64-.202-.258 0-.472.067-.64.202a1.208 1.208 0 00-.372.53 2.04 2.04 0 00-.121.706c0 .251.041.486.121.703.079.217.204.39.372.524.168.13.382.198.64.198zm4.131.521c-.354 0-.658-.083-.914-.249a1.635 1.635 0 01-.589-.691 2.36 2.36 0 01-.207-1.006c0-.385.072-.722.213-1.017a1.67 1.67 0 01.595-.691 1.6 1.6 0 01.894-.25c.266 0 .505.05.718.148a1.31 1.31 0 01.777 1.033h-.581a.916.916 0 00-.294-.459c-.152-.133-.356-.2-.612-.2-.225 0-.423.06-.593.176-.17.116-.301.282-.395.495a1.83 1.83 0 00-.141.746c0 .293.047.546.139.763.094.217.225.384.395.503s.368.18.597.18c.151 0 .288-.027.411-.078a.839.839 0 00.495-.58h.581a1.356 1.356 0 01-.243.6 1.372 1.372 0 01-.508.424c-.214.1-.458.154-.738.154zm1.996-.079v-.542h.137a.53.53 0 00.282-.068.473.473 0 00.184-.239 1.98 1.98 0 00.109-.477c.026-.204.043-.464.055-.779l.068-1.673h2.517v3.778h-.581v-3.236h-1.386l-.06 1.348a6.394 6.394 0 01-.081.818 2.067 2.067 0 01-.191.591.888.888 0 01-.335.36c-.139.08-.313.12-.524.12h-.194v-.001zm4.919-2.409h1.082c.441 0 .781.112 1.014.337.235.225.352.51.352.853 0 .227-.053.431-.158.617a1.113 1.113 0 01-.462.44 1.565 1.565 0 01-.746.164h-1.585v-3.778h.58v3.236h1.005c.229 0 .417-.06.564-.182a.576.576 0 00.221-.467.61.61 0 00-.221-.488.833.833 0 00-.564-.19h-1.082v-.542zm3.049 2.409V40.79h.581v3.778h-.581zm2.076-3.778l.904 1.544.906-1.544h.669l-1.219 1.888 1.219 1.888h-.669l-.906-1.465-.904 1.465h-.669l1.201-1.888-1.201-1.888h.669z" fill="#010101"/><path d="M35.652 22.1c-6.09-.249-10.843-5.406-10.594-11.497C25.308 4.513 30.466-.24 36.556.01 42.646.26 47.4 5.417 47.15 11.507c-.248 6.09-5.405 10.843-11.498 10.594zm.644-15.75a4.716 4.716 0 00-4.9 4.513 4.713 4.713 0 004.514 4.898 4.71 4.71 0 00.387-9.412z" fill="url(#paint2_linear)"/><path d="M10.712 10.673L.134 27.375a.862.862 0 00.694 1.322l19.754.807a.86.86 0 00.797-1.26l-9.176-17.512a.862.862 0 00-1.491-.06zm27 .447a1.61 1.61 0 11-3.22-.134 1.61 1.61 0 013.22.135z" fill="#76C591"/><path d="M19.322 53.993L8.5 42.25a5.599 5.599 0 01.323-7.911L20.567 23.52a5.599 5.599 0 017.91.323l10.82 11.744a5.599 5.599 0 01-.323 7.91L27.23 54.317a5.6 5.6 0 01-7.908-.324zm-4.86-14.637l8.23 8.933a1.164 1.164 0 001.645.067l8.933-8.23a1.164 1.164 0 00.067-1.643l-8.23-8.934a1.164 1.164 0 00-1.644-.067l-8.933 8.23a1.164 1.164 0 00-.067 1.644z" fill="url(#paint3_linear)"/><path d="M36.104 11.055L23.901 38.918" stroke="#76C591" stroke-width=".907" stroke-miterlimit="10"/><path d="M23.9 40.454a1.536 1.536 0 100-3.072 1.536 1.536 0 000 3.072z" fill="#82C2EB"/><defs><linearGradient id="paint0_linear" x1="247.412" y1="1.083" x2="247.412" y2="25.113" gradientUnits="userSpaceOnUse"><stop offset="0" stop-color="#FEEB8A"/><stop offset=".268" stop-color="#F8C3A8"/><stop offset=".539" stop-color="#F59BB6"/><stop offset=".684" stop-color="#F497B5"/><stop offset=".864" stop-color="#F28BB1"/><stop offset=".999" stop-color="#EF7FAD"/></linearGradient><linearGradient id="paint1_linear" x1="261.806" y1="1.083" x2="261.806" y2="25.113" gradientUnits="userSpaceOnUse"><stop offset="0" stop-color="#FEEB8A"/><stop offset=".268" stop-color="#F8C3A8"/><stop offset=".539" stop-color="#F59BB6"/><stop offset=".684" stop-color="#F497B5"/><stop offset=".864" stop-color="#F28BB1"/><stop offset=".999" stop-color="#EF7FAD"/></linearGradient><linearGradient id="paint2_linear" x1="25.105" y1="14.261" x2="46.342" y2="8.097" gradientUnits="userSpaceOnUse"><stop stop-color="#B1DCF5"/><stop offset=".999" stop-color="#82C2EB"/></linearGradient><linearGradient id="paint3_linear" x1="27.849" y1="54.757" x2="17.016" y2="11.334" gradientUnits="userSpaceOnUse"><stop offset="0" stop-color="#FEEB8A"/><stop offset=".268" stop-color="#F8C3A8"/><stop offset=".539" stop-color="#F59BB6"/><stop offset=".684" stop-color="#F497B5"/><stop offset=".864" stop-color="#F28BB1"/><stop offset=".999" stop-color="#EF7FAD"/></linearGradient></defs></svg>