<svg width="270" height="91" fill="none" xmlns="http://www.w3.org/2000/svg"><path d="M13.319 36.059l40.728-18.134" stroke="#82C2EB" stroke-width="1.467" stroke-miterlimit="10"/><path d="M93.522 39.915h-4.25v-5.938h-4.419v5.938h-4.249v-15.01h4.25v5.587h4.418v-5.588h4.25v15.01zm1.338-7.394c0-1.328.202-2.496.616-3.495.415-.998.946-1.827 1.615-2.496a6.68 6.68 0 012.295-1.509 7.248 7.248 0 012.666-.51c2.135 0 3.814.649 5.056 1.955 1.233 1.307 1.859 3.219 1.859 5.747 0 .244-.01.52-.031.818-.022.297-.043.553-.053.786h-9.646c.095.871.5 1.572 1.232 2.082.722.51 1.689.776 2.911.776.775 0 1.551-.075 2.294-.213.755-.138 1.36-.318 1.838-.53l.574 3.452c-.223.116-.531.223-.914.34a11.28 11.28 0 01-1.275.297c-.467.085-.966.16-1.497.212-.531.054-1.063.085-1.594.085-1.349 0-2.528-.201-3.527-.594-.998-.404-1.827-.946-2.485-1.636-.659-.69-1.137-1.52-1.456-2.465a9.878 9.878 0 01-.478-3.102zm9.996-1.625a4.973 4.973 0 00-.18-1.052 2.614 2.614 0 00-.489-.913 2.676 2.676 0 00-.828-.659c-.33-.17-.744-.255-1.243-.255a2.94 2.94 0 00-1.233.244 2.61 2.61 0 00-.86.638 3.042 3.042 0 00-.531.924 6.24 6.24 0 00-.276 1.073h5.64zm19.111-5.992v15.01h-4.281c0-.955.011-1.9.032-2.836.021-.945.042-1.816.053-2.613.021-.797.042-1.498.074-2.093.032-.594.043-1.04.043-1.327-.553.775-1.105 1.572-1.657 2.368a81.435 81.435 0 00-1.583 2.359c-.499.775-.977 1.508-1.424 2.21-.446.7-.839 1.349-1.189 1.943h-3.74v-15.01h4.249c0 .956 0 1.86-.01 2.73-.011.86-.021 1.647-.043 2.359-.021.711-.042 1.317-.053 1.837-.021.52-.032.925-.032 1.211a164.41 164.41 0 013.155-4.504 60.418 60.418 0 012.815-3.622h3.591v-.021zm-6.788-2.06c-.606 0-1.19-.096-1.753-.277a5 5 0 01-1.53-.796 4.39 4.39 0 01-1.126-1.286c-.297-.499-.467-1.083-.531-1.72l2.943-.776c.149.722.404 1.232.754 1.54.351.308.765.457 1.243.457.499 0 .914-.138 1.275-.414.35-.276.605-.797.754-1.551l2.911.765a4.044 4.044 0 01-.532 1.731c-.297.5-.669.925-1.115 1.275-.446.34-.956.606-1.53.786a5.767 5.767 0 01-1.763.266zm22.797 9.56c0 1.158-.138 2.22-.425 3.166-.287.956-.701 1.774-1.254 2.454a5.604 5.604 0 01-2.05 1.593c-.818.383-1.763.574-2.826.574a7.423 7.423 0 01-1.657-.17 8.112 8.112 0 01-1.487-.489v5.652h-4.249v-19.78c.382-.117.818-.223 1.317-.33a27.252 27.252 0 013.208-.446 21.498 21.498 0 011.615-.074c1.232 0 2.337.18 3.314.552.967.372 1.785.893 2.454 1.573a6.732 6.732 0 011.53 2.464c.34.977.51 2.061.51 3.261zm-4.334.117c0-1.317-.298-2.358-.882-3.155-.595-.786-1.466-1.19-2.624-1.19-.382 0-.733.011-1.052.043-.318.032-.584.064-.796.096v7.68c.265.17.616.319 1.041.425.425.117.86.17 1.296.17 2.007.01 3.017-1.35 3.017-4.069zm19.716-.148c0 1.179-.17 2.262-.51 3.24-.34.977-.839 1.816-1.487 2.507a6.784 6.784 0 01-2.327 1.614c-.903.383-1.912.574-3.038.574-1.105 0-2.103-.191-3.006-.574a6.643 6.643 0 01-2.327-1.614c-.648-.691-1.147-1.53-1.508-2.508-.361-.977-.542-2.06-.542-3.24 0-1.179.181-2.252.553-3.229.371-.967.881-1.795 1.54-2.486a6.868 6.868 0 012.337-1.593c.903-.383 1.891-.574 2.953-.574 1.084 0 2.082.192 2.985.574a6.876 6.876 0 012.326 1.593c.648.68 1.148 1.509 1.509 2.486.361.977.542 2.05.542 3.23zm-4.334 0c0-1.318-.266-2.348-.787-3.092-.52-.754-1.274-1.126-2.241-1.126-.967 0-1.721.372-2.252 1.126-.531.754-.797 1.785-.797 3.092 0 1.306.266 2.358.797 3.123.531.764 1.285 1.157 2.252 1.157.967 0 1.721-.382 2.241-1.157.521-.765.787-1.806.787-3.123zm-61.56 18.08v11.525h-4.25V50.453h-4.79v-3.485h13.841v3.485h-4.801zm19.365 4.015c0 1.158-.138 2.22-.425 3.166-.286.956-.701 1.774-1.253 2.454a5.604 5.604 0 01-2.05 1.593c-.818.383-1.764.574-2.826.574a7.416 7.416 0 01-1.657-.17 8.118 8.118 0 01-1.487-.489v5.651h-4.25v-19.78c.383-.116.818-.222 1.318-.329.499-.106 1.009-.19 1.55-.276a27.318 27.318 0 011.658-.18 21.503 21.503 0 011.615-.075c1.232 0 2.337.18 3.314.553.967.371 1.785.892 2.454 1.572a6.715 6.715 0 011.529 2.464c.34.988.51 2.082.51 3.272zm-4.334.117c0-1.317-.297-2.358-.882-3.155-.584-.786-1.465-1.18-2.623-1.18-.383 0-.733.011-1.052.043-.319.032-.595.064-.797.096v7.68c.266.17.616.319 1.041.425.425.117.861.17 1.296.17 2.008 0 3.017-1.36 3.017-4.079zm4.961 0c0-1.328.202-2.496.616-3.495.415-.998.946-1.827 1.615-2.496a6.68 6.68 0 012.294-1.509 7.253 7.253 0 012.667-.51c2.135 0 3.813.648 5.056 1.955 1.233 1.306 1.859 3.219 1.859 5.747 0 .244-.01.52-.032.818-.021.297-.042.552-.053.786h-9.645c.095.871.499 1.572 1.232 2.082.722.51 1.689.776 2.911.776.775 0 1.551-.075 2.294-.213.754-.138 1.36-.319 1.838-.531l.574 3.452c-.223.117-.531.223-.914.34-.382.117-.807.213-1.275.298-.467.085-.966.16-1.497.212-.532.053-1.063.085-1.594.085-1.349 0-2.528-.202-3.527-.595-.998-.403-1.827-.945-2.485-1.636-.659-.69-1.137-1.519-1.456-2.464a9.821 9.821 0 01-.478-3.102zm9.986-1.625a4.974 4.974 0 00-.181-1.052 2.614 2.614 0 00-.489-.913 2.676 2.676 0 00-.828-.66c-.329-.17-.744-.254-1.243-.254-.478 0-.882.085-1.232.244-.34.16-.627.372-.861.638a3.058 3.058 0 00-.531.924 6.44 6.44 0 00-.276 1.073h5.641zm18.377 9.018h-4.249V56.04h-4.419v5.938h-4.249v-15.01h4.249v5.599h4.419v-5.599h4.249v15.01zm7.447-15.413c1.253 0 2.305.138 3.134.425.839.286 1.508.69 2.007 1.232.5.531.861 1.179 1.073 1.944.213.765.319 1.604.319 2.539v8.849c-.605.138-1.455.286-2.539.467-1.083.18-2.401.276-3.941.276-.967 0-1.848-.085-2.634-.255a5.889 5.889 0 01-2.04-.839 3.902 3.902 0 01-1.317-1.53c-.308-.626-.457-1.402-.457-2.315 0-.871.181-1.615.531-2.231a4.037 4.037 0 011.413-1.456 6.363 6.363 0 012.029-.786 11.586 11.586 0 012.369-.244c.552 0 1.041.021 1.466.074.425.043.775.107 1.041.181v-.404c0-.722-.223-1.306-.659-1.742-.435-.435-1.2-.658-2.284-.658-.722 0-1.434.053-2.135.159-.701.106-1.317.255-1.827.446l-.542-3.42c.244-.075.553-.16.924-.245.372-.085.776-.16 1.211-.223a24.56 24.56 0 011.381-.17c.5-.042.988-.074 1.477-.074zm.35 12.44c.415 0 .818-.012 1.201-.033a7.53 7.53 0 00.913-.085v-3.23a7.374 7.374 0 00-.775-.116 7.572 7.572 0 00-.945-.053 7.51 7.51 0 00-1.126.074 2.95 2.95 0 00-.925.266 1.647 1.647 0 00-.626.542c-.149.223-.224.51-.224.86 0 .67.224 1.126.67 1.381.446.266 1.051.393 1.837.393zm6.385 2.973a48.972 48.972 0 012.942-4.26 56.758 56.758 0 013.23-3.77 57.75 57.75 0 01-3.272-3.633 71.194 71.194 0 01-2.613-3.347h4.971a67.307 67.307 0 001.785 2.422c.69.914 1.604 2.072 2.719 3.474v-5.896h4.143v5.917a74.636 74.636 0 002.773-3.484c.68-.935 1.275-1.753 1.774-2.433h4.908a36.463 36.463 0 01-2.475 3.347c-.946 1.147-2.061 2.347-3.325 3.6a54.84 54.84 0 011.837 2.04 57.975 57.975 0 011.541 1.902c.488.627.945 1.285 1.381 1.954.435.68.892 1.392 1.37 2.157h-4.727a91.338 91.338 0 00-5.025-6.81v6.81h-4.143V55.2a318.665 318.665 0 01-2.772 3.633 51.411 51.411 0 00-2.252 3.123h-4.77v.021z" fill="#fff"/><path d="M174.893 54.585c0-1.328.202-2.496.616-3.495.415-.998.946-1.827 1.615-2.496a6.675 6.675 0 012.295-1.509 7.244 7.244 0 012.666-.51c2.135 0 3.814.648 5.056 1.955 1.233 1.306 1.859 3.219 1.859 5.747 0 .244-.01.52-.031.818-.022.297-.043.552-.054.786h-9.645c.096.871.499 1.572 1.232 2.082.722.51 1.689.776 2.911.776.775 0 1.551-.075 2.294-.213.755-.138 1.36-.319 1.838-.531l.574 3.452c-.223.117-.531.223-.914.34-.382.117-.807.213-1.275.298-.467.085-.966.16-1.497.212-.532.053-1.063.085-1.594.085-1.349 0-2.528-.202-3.527-.595-.998-.403-1.827-.945-2.485-1.636-.659-.69-1.137-1.519-1.456-2.464a9.85 9.85 0 01-.478-3.102zm9.986-1.625a4.974 4.974 0 00-.181-1.052 2.598 2.598 0 00-.489-.913 2.676 2.676 0 00-.828-.66c-.329-.17-.744-.254-1.243-.254-.478 0-.882.085-1.232.244-.34.16-.627.372-.861.638a3.058 3.058 0 00-.531.924 6.44 6.44 0 00-.276 1.073h5.641zm19.408 1.508c0 1.158-.138 2.22-.425 3.166-.287.956-.701 1.774-1.254 2.454a5.604 5.604 0 01-2.05 1.593c-.818.383-1.763.574-2.825.574a7.426 7.426 0 01-1.658-.17 8.112 8.112 0 01-1.487-.489v5.651h-4.249v-19.78c.382-.116.818-.222 1.317-.329a29.115 29.115 0 011.551-.276 27.332 27.332 0 011.657-.18 21.498 21.498 0 011.615-.075c1.232 0 2.337.18 3.314.553.967.371 1.785.892 2.454 1.572a6.73 6.73 0 011.53 2.464c.329.988.51 2.082.51 3.272zm-4.345.117c0-1.317-.297-2.358-.882-3.155-.595-.786-1.466-1.18-2.624-1.18-.382 0-.733.011-1.051.043-.319.032-.584.064-.797.096v7.68c.266.17.616.319 1.041.425.425.117.861.17 1.296.17 2.008 0 3.017-1.36 3.017-4.079zm9.932-2.284a6.305 6.305 0 011.041-.18 14.48 14.48 0 011.466-.075c.872 0 1.7.106 2.465.308.765.213 1.445.531 2.008.956a4.613 4.613 0 011.359 1.625c.33.66.5 1.424.5 2.295s-.149 1.636-.457 2.273a4.113 4.113 0 01-1.317 1.573c-.574.414-1.254.711-2.04.913-.786.202-1.668.298-2.634.298a31.1 31.1 0 01-3.453-.181 27.459 27.459 0 01-3.197-.584V46.968h4.249v5.333h.01zm2.114 6.703c.776 0 1.392-.149 1.838-.446.446-.297.669-.776.669-1.445 0-.34-.074-.627-.223-.87a1.72 1.72 0 00-.626-.574 2.958 2.958 0 00-.925-.298 7.458 7.458 0 00-1.126-.085c-.286 0-.595.021-.945.053-.34.043-.595.075-.776.117v3.42c.234.043.532.064.914.086.382.042.775.042 1.2.042zm13.152 2.974h-4.25v-15.01h4.25v15.01z" fill="#fff"/><path d="M249.285 54.107c0 1.158-.138 2.22-.425 3.166-.286.956-.701 1.773-1.253 2.453a5.605 5.605 0 01-2.05 1.594c-.818.382-1.764.574-2.826.574a7.422 7.422 0 01-1.657-.17 8.127 8.127 0 01-1.487-.49v5.652h-4.25v-19.78a15.87 15.87 0 011.318-.329 27.245 27.245 0 013.208-.446 21.496 21.496 0 011.614-.074c1.233 0 2.338.18 3.315.552.967.372 1.785.892 2.454 1.572a6.715 6.715 0 011.529 2.465c.33.977.51 2.06.51 3.26zm-4.334.106c0-1.317-.297-2.358-.881-3.155-.585-.786-1.467-1.19-2.624-1.19-.383 0-.733.01-1.052.043-.319.032-.584.063-.797.095v7.68c.266.17.616.32 1.041.426.425.116.861.17 1.296.17 2.008.01 3.017-1.35 3.017-4.069z" fill="url(#paint0_linear)"/><path d="M232.714 59.354a2.612 2.612 0 01-2.614 2.614 2.612 2.612 0 01-2.613-2.614 2.612 2.612 0 012.613-2.613 2.612 2.612 0 012.614 2.613z" fill="#76C591"/><path d="M267.62 48.827a8.274 8.274 0 00-2.549-1.423 12.577 12.577 0 00-3.049-.659v-3.951h-4.143v3.951c-1.37.149-2.56.446-3.569.871s-1.838.967-2.486 1.626a6.402 6.402 0 00-1.445 2.24c-.318.84-.467 1.733-.467 2.688 0 .988.17 1.923.499 2.794.33.872.829 1.647 1.498 2.316.669.67 1.498 1.211 2.497 1.625.998.415 2.156.68 3.463.776v5.226h4.143v-5.226a13.111 13.111 0 003.08-.637 7.871 7.871 0 002.539-1.413c.722-.606 1.296-1.36 1.732-2.252.425-.893.637-1.955.637-3.166 0-1.2-.212-2.241-.637-3.123a6.502 6.502 0 00-1.743-2.263zm-9.741 9.242c-1.2-.138-2.114-.5-2.741-1.083-.626-.585-.945-1.509-.945-2.773 0-1.306.329-2.273.988-2.879.659-.605 1.551-.956 2.698-1.052v7.787zm7.489-2.029c-.223.5-.499.892-.86 1.18-.351.297-.744.51-1.179.637a4.313 4.313 0 01-1.317.202v-7.787a5.81 5.81 0 011.317.223c.435.138.828.35 1.179.637.351.298.637.69.86 1.19.223.5.33 1.116.33 1.86 0 .743-.117 1.37-.33 1.858z" fill="url(#paint1_linear)"/><path d="M81.157 81.567v-6.172h2.082c.489 0 .882.085 1.19.266.308.17.541.403.69.701.149.297.223.627.223.988s-.074.69-.223.988a1.684 1.684 0 01-.68.712c-.308.18-.7.265-1.179.265h-1.498v-.658h1.466c.33 0 .595-.054.797-.17a.976.976 0 00.436-.468c.085-.202.138-.414.138-.67a1.54 1.54 0 00-.138-.668.932.932 0 00-.447-.457c-.201-.106-.467-.17-.807-.17H81.89v5.513h-.733zm6.66.106a1.75 1.75 0 01-.796-.17 1.417 1.417 0 01-.574-.488 1.375 1.375 0 01-.213-.765c0-.266.054-.478.16-.648a1.13 1.13 0 01.414-.393c.17-.096.372-.17.584-.213.213-.042.425-.084.638-.116.287-.032.51-.064.69-.085.181-.022.308-.053.383-.096.085-.043.117-.127.117-.244v-.022c0-.297-.085-.53-.245-.69-.159-.16-.403-.244-.733-.244-.34 0-.605.074-.797.223-.19.149-.329.308-.403.478l-.68-.245c.117-.276.287-.499.489-.658a1.83 1.83 0 01.658-.33 2.83 2.83 0 01.712-.095c.149 0 .319.021.51.053s.382.106.563.212c.18.107.33.277.457.489.117.223.18.51.18.882v3.049h-.711v-.627h-.032a1.022 1.022 0 01-.245.319 1.558 1.558 0 01-.446.297c-.18.096-.414.127-.68.127zm.107-.637c.276 0 .52-.053.711-.17a1.118 1.118 0 00.585-.977v-.648a.503.503 0 01-.202.095 2.89 2.89 0 01-.35.075c-.128.021-.256.042-.383.053-.128.01-.223.032-.298.042a2.74 2.74 0 00-.52.117.974.974 0 00-.383.234.607.607 0 00-.148.425c0 .244.095.435.276.563.18.127.425.191.712.191zm3.027-.648h.754c.022.213.107.372.287.478.17.106.404.16.68.16.287 0 .531-.064.733-.181.202-.117.308-.308.308-.574a.717.717 0 00-.436-.67 1.146 1.146 0 00-.488-.095h-.797v-.637h.797c.287 0 .489-.064.627-.191a.619.619 0 00.202-.478.63.63 0 00-.224-.5c-.148-.127-.35-.19-.626-.19-.277 0-.5.063-.68.18a.58.58 0 00-.287.467h-.744c.011-.244.085-.467.234-.658.149-.192.34-.34.595-.457a2.14 2.14 0 01.86-.17c.33 0 .606.053.85.17.245.117.425.265.563.457a1.1 1.1 0 01.202.658.915.915 0 01-.223.638c-.149.17-.33.276-.552.34v.042c.18.01.329.064.457.17.127.106.233.234.307.393.075.16.107.34.107.531 0 .276-.075.531-.223.733a1.388 1.388 0 01-.616.478 2.21 2.21 0 01-.903.17 2.33 2.33 0 01-.882-.16 1.494 1.494 0 01-.616-.445c-.18-.18-.255-.404-.266-.659zm4.483 1.179v-4.631h1.89c.5 0 .893.116 1.19.34.298.223.436.52.436.892 0 .276-.085.5-.255.648-.17.148-.382.255-.637.308a1.291 1.291 0 01.903.574c.106.17.16.371.16.616 0 .233-.065.446-.181.637-.117.191-.298.33-.52.446-.224.117-.49.16-.808.16h-2.178v.01zm.68-2.687h1.221c.192 0 .351-.032.49-.085a.661.661 0 00.318-.234.593.593 0 00.106-.35.53.53 0 00-.244-.457c-.16-.107-.383-.17-.67-.17h-1.221v1.296zm0 2.04h1.508c.245 0 .436-.054.574-.17a.597.597 0 00.213-.479c0-.244-.075-.425-.213-.563-.138-.138-.33-.202-.574-.202h-1.508v1.413zm4.801-.404l2.231-3.58h.818v4.631h-.712v-3.58l-2.22 3.58h-.828v-4.631h.711v3.58zm4.345 1.051v-4.631h1.891c.499 0 .892.116 1.19.34.297.223.435.52.435.892 0 .276-.085.5-.255.648-.17.148-.382.255-.637.308a1.287 1.287 0 01.903.574c.106.17.159.371.159.616a1.2 1.2 0 01-.18.637c-.117.191-.298.33-.521.446-.223.117-.488.16-.807.16h-2.178v.01zm.68-2.687h1.222c.191 0 .35-.032.488-.085a.595.595 0 00.425-.584.53.53 0 00-.244-.458c-.159-.106-.382-.17-.669-.17h-1.222v1.297zm0 2.04h1.509c.244 0 .435-.054.573-.17a.598.598 0 00.213-.479c0-.244-.075-.425-.213-.563-.138-.138-.329-.202-.573-.202h-1.509v1.413zm5.45.753c-.298 0-.563-.053-.797-.17a1.418 1.418 0 01-.574-.488 1.375 1.375 0 01-.212-.765c0-.266.053-.478.159-.648a1.13 1.13 0 01.414-.393c.17-.096.372-.17.585-.213.212-.042.425-.084.637-.116.287-.032.51-.064.691-.085.18-.022.308-.053.382-.096.085-.043.117-.127.117-.244v-.022c0-.297-.085-.53-.245-.69-.159-.16-.403-.244-.732-.244-.34 0-.606.074-.797.223a1.29 1.29 0 00-.404.478l-.68-.245c.117-.276.287-.499.489-.658.202-.16.425-.266.659-.33.244-.063.478-.095.711-.095.149 0 .319.021.51.053s.383.106.563.212c.181.107.329.277.457.489.117.223.181.51.181.882v3.049h-.712v-.627h-.032a1.026 1.026 0 01-.244.319 1.56 1.56 0 01-.447.297c-.18.096-.414.127-.679.127zm.106-.637c.276 0 .52-.053.712-.17a1.12 1.12 0 00.584-.977v-.648a.506.506 0 01-.202.095 2.871 2.871 0 01-.351.075 4.724 4.724 0 01-.382.053c-.128.01-.223.032-.297.042a2.65 2.65 0 00-.521.117.97.97 0 00-.382.234.606.606 0 00-.149.425c0 .244.095.435.276.563.181.127.436.191.712.191zm3.697-4.1v4.631h-.712v-4.631h.712zm1.837 2.028v.67h-2.443v-.67h2.443zm1.424 2.699c-.414 0-.786-.096-1.094-.298a2.02 2.02 0 01-.733-.839c-.181-.361-.266-.775-.266-1.253 0-.478.085-.903.266-1.264.18-.362.425-.638.733-.84.308-.201.68-.297 1.094-.297.414 0 .786.096 1.094.297.319.202.563.478.733.84.181.36.266.775.266 1.264 0 .478-.085.892-.266 1.253a2.1 2.1 0 01-.733.84c-.308.201-.669.297-1.094.297zm0-.638c.319 0 .573-.085.786-.244.202-.16.361-.382.457-.637.095-.266.148-.553.148-.86 0-.309-.053-.596-.148-.861a1.444 1.444 0 00-.457-.648c-.202-.17-.467-.245-.786-.245a1.26 1.26 0 00-.786.245c-.202.16-.361.382-.457.648a2.514 2.514 0 00-.149.86c0 .308.053.595.149.86.096.266.255.479.457.638.212.16.467.244.786.244zm3.261-4.089h.712v3.973h1.753v-3.973h.711v3.973h1.753v-3.973h.712v4.631h-5.63v-4.631h-.011zm6.321 3.973l-.085 1.986h-.733v-1.328h-.606v-.658h1.424zm1.742-.393l2.231-3.58h.818v4.631h-.712v-3.58l-2.22 3.58h-.829v-4.631h.712v3.58zm6.299 1.147c-.446 0-.828-.096-1.147-.298a2.005 2.005 0 01-.744-.828 2.888 2.888 0 01-.265-1.243c0-.468.085-.892.265-1.254.17-.36.415-.648.733-.85.308-.201.68-.308 1.094-.308.245 0 .479.043.712.117a1.79 1.79 0 011.094 1.105c.117.298.17.659.17 1.094v.298h-3.569v-.616h2.847c0-.266-.053-.5-.159-.701a1.3 1.3 0 00-.436-.49 1.26 1.26 0 00-.669-.18 1.27 1.27 0 00-.733.213 1.473 1.473 0 00-.478.541 1.64 1.64 0 00-.17.712v.415c0 .35.064.647.181.881.116.245.286.425.509.553.223.127.468.19.755.19a1.5 1.5 0 00.509-.084c.149-.053.287-.138.394-.245.106-.106.191-.244.254-.403l.691.191a1.57 1.57 0 01-.361.616c-.17.18-.383.308-.638.414a2.13 2.13 0 01-.839.16zm6.098-1.147l2.231-3.58h.818v4.631h-.712v-3.58l-2.22 3.58h-.829v-4.631h.712v3.58zm7.213-3.58v.669h-2.146v3.962h-.712v-4.631h2.858zm1.041 6.374v-6.364h.69v.733h.085c.053-.085.128-.18.223-.308.096-.127.223-.233.404-.34.181-.095.414-.149.712-.149.393 0 .733.096 1.03.298.298.191.531.467.701.828.17.362.255.776.255 1.265 0 .488-.085.913-.255 1.274a1.98 1.98 0 01-.69.829 1.855 1.855 0 01-1.02.297c-.297 0-.531-.053-.712-.148a1.237 1.237 0 01-.414-.34 4.559 4.559 0 01-.223-.319h-.064v2.443h-.722zm.69-4.059c0 .35.053.659.149.925.096.265.255.478.446.626.202.149.436.223.723.223.297 0 .541-.074.743-.233a1.49 1.49 0 00.457-.638 2.61 2.61 0 00.149-.892c0-.33-.053-.616-.149-.882a1.445 1.445 0 00-.446-.626c-.202-.16-.446-.234-.754-.234-.287 0-.532.074-.734.223-.201.149-.35.35-.446.606a2.617 2.617 0 00-.138.902zm4.77 4.037a1.43 1.43 0 01-.51-.085l.181-.627c.255.064.478.064.648 0 .17-.074.318-.276.446-.626l.138-.362-1.71-4.652h.775l1.275 3.686h.053l1.275-3.686.775.01-1.976 5.29a1.923 1.923 0 01-.329.585 1.315 1.315 0 01-.457.35c-.18.085-.372.117-.584.117zm4.27-6.352h.712v3.973h1.753v-3.973h.712v3.973h1.752v-3.973h.712v4.631h-5.63v-4.631h-.011zm6.937 4.631v-4.631h.712v2.018h.467l1.668-2.018h.914l-1.87 2.23 1.891 2.401h-.914l-1.519-1.954h-.637v1.954h-.712zm5.269-1.051l2.231-3.58h.818v4.631h-.712v-3.58l-2.22 3.58h-.829v-4.631h.712v3.58zm6.246.393h.383c.095-.096.18-.202.244-.32a2.83 2.83 0 00.181-.403c.053-.16.095-.35.127-.574.032-.223.064-.499.096-.828l.159-1.838h2.943v3.973h.711v1.987h-.711v-1.328h-3.421v1.328h-.712v-1.997zm1.19 0h2.231v-3.304h-1.572l-.117 1.168c-.053.49-.117.903-.191 1.275-.064.35-.181.638-.351.86zm4.186.658v-.658h.17a.712.712 0 00.35-.085c.096-.054.17-.15.223-.298.053-.149.106-.34.138-.584.032-.244.053-.574.064-.956l.085-2.05h3.091v4.631h-.712v-3.962h-1.699l-.075 1.646a7.99 7.99 0 01-.106.999 2.38 2.38 0 01-.234.722 1.2 1.2 0 01-.414.447c-.17.106-.382.148-.637.148h-.244zm5.109 0l1.317-2.305h.776l-1.317 2.305h-.776zm3.091 0v-3.983h-1.232c-.276 0-.499.063-.658.19-.16.128-.234.309-.234.532a.67.67 0 00.212.52c.138.128.34.192.595.192h1.498v.669h-1.498c-.308 0-.584-.053-.807-.17a1.14 1.14 0 01-.521-.478c-.127-.202-.18-.446-.18-.733s.063-.531.191-.733c.127-.202.308-.361.552-.478.245-.106.532-.17.861-.17h1.901v4.632h-.68v.01zm3.867-.658h.383c.095-.096.18-.202.244-.32.064-.116.127-.254.18-.403.054-.16.096-.35.128-.574.032-.223.064-.499.096-.828l.159-1.838h2.942v3.973h.712v1.987h-.712v-1.328h-3.42v1.328h-.712v-1.997zm1.201 0h2.23v-3.304h-1.572l-.117 1.168c-.053.49-.116.903-.191 1.275-.074.35-.191.638-.35.86zm6.533.754c-.447 0-.829-.096-1.148-.298a2.01 2.01 0 01-.743-.828 2.888 2.888 0 01-.266-1.243c0-.468.085-.892.266-1.254.17-.36.414-.648.733-.85.308-.201.68-.308 1.094-.308.244 0 .478.043.712.117a1.792 1.792 0 011.094 1.105c.117.298.17.659.17 1.094v.298h-3.569v-.616h2.846c0-.266-.053-.5-.159-.701a1.297 1.297 0 00-.435-.49 1.266 1.266 0 00-.67-.18c-.286 0-.531.075-.733.213a1.473 1.473 0 00-.478.541 1.64 1.64 0 00-.17.712v.415c0 .35.064.647.181.881.117.245.287.425.51.553.223.127.467.19.754.19.191 0 .361-.031.51-.084.149-.053.287-.138.393-.245.106-.106.191-.244.255-.403l.69.191a1.57 1.57 0 01-.361.616 1.79 1.79 0 01-.637.414 2.1 2.1 0 01-.839.16zm2.57-4.058v-.67h3.761v.67H208.6v3.962h-.712v-3.962h-1.53zm6.502 4.058c-.447 0-.829-.096-1.148-.298a2.01 2.01 0 01-.743-.828 2.888 2.888 0 01-.266-1.243c0-.468.085-.892.266-1.254.17-.36.414-.648.733-.85.308-.201.68-.308 1.094-.308.244 0 .478.043.712.117a1.792 1.792 0 011.094 1.105c.117.298.17.659.17 1.094v.298h-3.57v-.616h2.847c0-.266-.053-.5-.159-.701a1.291 1.291 0 00-.436-.49 1.26 1.26 0 00-.669-.18 1.27 1.27 0 00-.733.213 1.473 1.473 0 00-.478.541 1.64 1.64 0 00-.17.712v.415c0 .35.064.647.181.881.117.245.287.425.51.553.223.127.467.19.754.19.191 0 .361-.031.51-.084.149-.053.287-.138.393-.245.106-.106.191-.244.255-.403l.69.191a1.57 1.57 0 01-.361.616 1.79 1.79 0 01-.637.414c-.255.107-.531.16-.839.16zm3.707-1.147l2.231-3.58h.818v4.631h-.712v-3.58l-2.22 3.58h-.829v-4.631h.712v3.58zm1.763-5.12h.659c0 .329-.117.594-.34.796-.223.202-.531.308-.913.308-.383 0-.68-.106-.903-.308a1.06 1.06 0 01-.34-.797h.658c0 .16.043.298.128.415.085.116.233.18.446.18.212 0 .361-.064.457-.18a.587.587 0 00.148-.415zm5.694 5.12l2.231-3.58h.818v4.631h-.712v-3.58l-2.22 3.58h-.828v-4.631h.711v3.58zm6.746 1.051v-4.631h1.891c.499 0 .892.116 1.19.34.297.223.435.52.435.892 0 .276-.085.5-.255.648-.17.148-.382.255-.637.308a1.287 1.287 0 01.903.574c.106.17.159.371.159.616 0 .233-.064.446-.181.637-.117.191-.297.33-.52.446-.223.117-.489.16-.808.16h-2.177v.01zm.669-2.687h1.222c.191 0 .35-.032.488-.085a.595.595 0 00.425-.584.53.53 0 00-.244-.458c-.159-.106-.382-.17-.669-.17h-1.222v1.297zm0 2.04h1.508c.245 0 .436-.054.574-.17a.598.598 0 00.213-.479c0-.244-.075-.425-.213-.563-.138-.138-.329-.202-.574-.202h-1.508v1.413zm3.803-.532h.754c.021.213.106.372.287.478.17.106.404.16.68.16.287 0 .531-.064.733-.181.202-.117.308-.308.308-.574a.717.717 0 00-.435-.67 1.151 1.151 0 00-.489-.095h-.797v-.637h.797c.287 0 .489-.064.627-.191a.618.618 0 00.201-.478.63.63 0 00-.223-.5c-.148-.127-.35-.19-.626-.19-.277 0-.5.063-.68.18a.58.58 0 00-.287.467h-.744a1.13 1.13 0 01.234-.658c.149-.192.34-.34.595-.457.244-.106.531-.17.86-.17.33 0 .606.053.85.17.244.117.425.265.563.457a1.1 1.1 0 01.202.658.913.913 0 01-.223.638 1.11 1.11 0 01-.552.34v.042a.75.75 0 01.456.17 1.118 1.118 0 01.415.924c0 .276-.075.531-.224.733a1.384 1.384 0 01-.616.478c-.265.117-.563.17-.903.17-.329 0-.616-.053-.881-.16a1.488 1.488 0 01-.616-.445.896.896 0 01-.266-.659zm4.483 2.922v-6.364h.69v.733h.085c.054-.085.128-.18.223-.308.096-.127.224-.233.404-.34.181-.095.414-.149.712-.149.393 0 .733.096 1.03.298.298.191.531.467.701.828.17.362.255.776.255 1.265 0 .488-.085.913-.255 1.274a1.98 1.98 0 01-.69.829 1.85 1.85 0 01-1.02.297c-.297 0-.531-.053-.712-.148a1.237 1.237 0 01-.414-.34 4.93 4.93 0 01-.223-.319h-.064v2.443h-.722zm.701-4.059c0 .35.053.659.149.925.095.265.255.478.446.626.202.149.435.223.722.223.298 0 .542-.074.744-.233.202-.16.35-.372.457-.638.095-.265.148-.563.148-.892 0-.33-.053-.616-.148-.882a1.445 1.445 0 00-.446-.626c-.202-.16-.447-.234-.755-.234a1.2 1.2 0 00-.733.223c-.201.149-.35.35-.446.606a2.617 2.617 0 00-.138.902zm6.353 2.412c-.415 0-.786-.096-1.095-.298a2.02 2.02 0 01-.733-.839c-.18-.361-.265-.775-.265-1.253 0-.478.085-.903.265-1.264.181-.362.425-.638.733-.84.309-.201.68-.297 1.095-.297.414 0 .786.096 1.094.297.308.202.563.478.733.84.18.36.265.775.265 1.264 0 .478-.085.892-.265 1.253a2.1 2.1 0 01-.733.84c-.308.201-.68.297-1.094.297zm0-.638c.318 0 .573-.085.786-.244.201-.16.35-.382.456-.637.096-.266.149-.553.149-.86a2.51 2.51 0 00-.149-.861 1.442 1.442 0 00-.456-.648c-.202-.17-.468-.245-.786-.245a1.26 1.26 0 00-.787.245c-.201.16-.35.382-.456.648a2.514 2.514 0 00-.149.86c0 .308.053.595.149.86.095.266.255.479.456.638.202.16.468.244.787.244zm5.067.638a2.05 2.05 0 01-1.126-.308 2.03 2.03 0 01-.723-.85 2.871 2.871 0 01-.255-1.232c0-.468.085-.882.266-1.243.17-.362.414-.648.733-.85a1.97 1.97 0 011.094-.308c.329 0 .616.064.882.18.265.117.478.287.637.51.159.224.266.468.308.755h-.712a1.05 1.05 0 00-.361-.563c-.191-.16-.435-.245-.754-.245-.276 0-.52.075-.733.213-.212.149-.372.35-.489.605a2.24 2.24 0 00-.17.914c0 .36.054.669.17.935.117.265.277.467.478.616.213.148.457.223.733.223.181 0 .351-.032.5-.096.148-.063.276-.16.382-.276a.998.998 0 00.223-.436h.712a1.61 1.61 0 01-.297.733 1.6 1.6 0 01-.627.52c-.234.139-.531.203-.871.203zm2.443-.096v-.658h.17a.71.71 0 00.35-.085c.096-.054.17-.15.224-.298.053-.149.106-.34.138-.584.031-.244.053-.574.063-.956l.085-2.05h3.092v4.631h-.712v-3.962h-1.7l-.074 1.646a7.99 7.99 0 01-.106.999 2.436 2.436 0 01-.234.722 1.2 1.2 0 01-.414.447c-.17.106-.383.148-.638.148h-.244zm6.034-2.953h1.328c.541 0 .956.138 1.242.414.287.276.436.627.436 1.052 0 .276-.064.531-.191.754a1.462 1.462 0 01-.563.542c-.255.138-.553.202-.914.202h-1.944v-4.632h.712v3.973h1.232c.276 0 .51-.074.691-.223a.706.706 0 00.265-.573.733.733 0 00-.265-.595c-.181-.16-.415-.234-.691-.234h-1.328v-.68h-.01zm3.739 2.953v-4.631h.712v4.631h-.712zm2.539-4.631l1.105 1.89 1.104-1.89h.818l-1.497 2.315 1.497 2.316h-.818l-1.104-1.795-1.105 1.795h-.818l1.466-2.316-1.466-2.315h.818z" fill="#fff"/><path d="M53.314 35.836c-9.88-.404-17.581-8.764-17.177-18.644C36.54 7.313 44.9-.388 54.78.015 64.66.42 72.36 8.78 71.957 18.658c-.404 9.869-8.764 17.581-18.643 17.178zm1.04-25.549c-4.206-.17-7.775 3.113-7.945 7.32-.17 4.206 3.112 7.776 7.32 7.946 4.206.17 7.775-3.113 7.945-7.32.18-4.206-3.112-7.765-7.32-7.946z" fill="url(#paint2_linear)"/><path d="M7.466 25.85l-6.332 9.996c-2.985 4.706.255 10.867 5.822 11.101l11.823.489c5.567.223 9.295-5.652 6.703-10.591L19.99 26.37c-2.592-4.94-9.54-5.227-12.524-.521zm49.184-7.818a2.604 2.604 0 01-2.72 2.496 2.604 2.604 0 01-2.496-2.72 2.602 2.602 0 012.709-2.496c1.434.064 2.57 1.275 2.507 2.72z" fill="#76C591"/><path d="M26.842 87.537L9.303 68.501c-3.399-3.686-3.165-9.433.521-12.822L28.86 38.141c3.686-3.4 9.433-3.166 12.822.52L59.22 57.698c3.4 3.686 3.166 9.433-.52 12.821L39.664 88.058c-3.686 3.4-9.433 3.166-12.822-.52zM18.96 63.806l13.342 14.479a1.883 1.883 0 002.666.106l14.48-13.342a1.883 1.883 0 00.106-2.667L36.21 47.903a1.883 1.883 0 00-2.666-.106L19.065 61.14a1.883 1.883 0 00-.105 2.667z" fill="url(#paint3_linear)"/><path d="M54.047 17.925l-19.79 45.169" stroke="#76C591" stroke-width="1.467" stroke-miterlimit="10"/><path d="M34.257 65.58a2.486 2.486 0 100-4.972 2.486 2.486 0 000 4.972z" fill="#82C2EB"/><defs><linearGradient id="paint0_linear" x1="242.309" y1="23.379" x2="242.309" y2="52.84" gradientUnits="userSpaceOnUse"><stop offset="0" stop-color="#FEEB8A"/><stop offset=".268" stop-color="#F8C3A8"/><stop offset=".539" stop-color="#F59BB6"/><stop offset=".684" stop-color="#F497B5"/><stop offset=".864" stop-color="#F28BB1"/><stop offset=".999" stop-color="#EF7FAD"/></linearGradient><linearGradient id="paint1_linear" x1="259.957" y1="23.379" x2="259.957" y2="52.84" gradientUnits="userSpaceOnUse"><stop offset="0" stop-color="#FEEB8A"/><stop offset=".268" stop-color="#F8C3A8"/><stop offset=".539" stop-color="#F59BB6"/><stop offset=".684" stop-color="#F497B5"/><stop offset=".864" stop-color="#F28BB1"/><stop offset=".999" stop-color="#EF7FAD"/></linearGradient><linearGradient id="paint2_linear" x1="36.231" y1="23.203" x2="70.663" y2="13.208" gradientUnits="userSpaceOnUse"><stop stop-color="#B1DCF5"/><stop offset=".999" stop-color="#82C2EB"/></linearGradient><linearGradient id="paint3_linear" x1="40.68" y1="88.859" x2="23.116" y2="18.457" gradientUnits="userSpaceOnUse"><stop offset="0" stop-color="#FEEB8A"/><stop offset=".268" stop-color="#F8C3A8"/><stop offset=".539" stop-color="#F59BB6"/><stop offset=".684" stop-color="#F497B5"/><stop offset=".864" stop-color="#F28BB1"/><stop offset=".999" stop-color="#EF7FAD"/></linearGradient></defs></svg>