<svg width="16" height="10" fill="none" xmlns="http://www.w3.org/2000/svg"><path d="M15.851 8.34c0-.064-.063-.064-.063-.128-.255-.51-.828-1.146-1.592-1.846-.382-.318-.573-.573-.7-.7-.191-.255-.191-.446-.127-.7.063-.191.318-.51.764-1.083.254-.318.382-.509.573-.7.954-1.273 1.4-2.1 1.273-2.483l-.064-.063c-.064-.064-.127-.128-.255-.128-.127-.063-.318-.063-.509 0h-2.865l-.063.064c-.064.064-.064.064-.064.127-.255.7-.573 1.273-.891 1.91-.191.318-.382.637-.573.891-.191.255-.318.446-.446.573-.127.128-.254.191-.318.319-.064.063-.191.127-.191.063-.064 0-.127 0-.127-.063l-.191-.191c-.064-.064-.064-.191-.128-.319V.7c0-.063-.063-.19-.063-.254L9.04.255C8.976.19 8.849.19 8.785.127A5.71 5.71 0 007.64 0C6.621 0 5.92.064 5.666.191c-.128.064-.255.127-.319.255-.127.127-.127.19-.063.19.318.064.573.192.7.383l.064.127c.063.064.063.19.127.382.064.19.064.382.064.636v1.019c0 .318-.064.51-.064.7 0 .191-.064.319-.127.382-.064.128-.064.191-.128.191 0 0 0 .064-.063.064-.064 0-.128.064-.255.064a.483.483 0 01-.255-.128.767.767 0 01-.318-.318 2.222 2.222 0 01-.382-.573c-.127-.255-.318-.51-.445-.891l-.128-.255a9.01 9.01 0 01-.318-.7c-.127-.318-.255-.573-.382-.891a.879.879 0 00-.191-.255h-.064S3.056.509 2.992.509s-.127-.063-.19-.063H.508C.255.446.127.509.064.573L0 .637v.127c0 .064 0 .127.064.255.318.763.7 1.527 1.082 2.291.382.7.764 1.337 1.018 1.783.319.445.573.891.892 1.273.318.382.509.637.573.764l.254.255.191.19c.128.128.319.319.573.51.255.19.573.382.891.573.319.19.7.318 1.083.445.445.128.827.191 1.21.128h.954a.578.578 0 00.446-.191l.063-.064c0-.064.064-.064.064-.127v-.255c0-.255 0-.445.064-.636.063-.191.063-.319.127-.446a.879.879 0 01.191-.255l.127-.127h.064c.127-.064.318 0 .446.127.19.128.382.319.509.51.127.19.318.381.573.636.255.255.446.446.573.51l.19.127c.128.063.255.127.446.19.191.064.319.064.446.064l2.164-.063a1.2 1.2 0 00.51-.128c.127-.063.19-.127.19-.254v-.255c-.127-.127-.127-.19-.127-.255z" fill="#333"/></svg>