<svg width="65" height="50" fill="none" xmlns="http://www.w3.org/2000/svg"><path opacity=".1" d="M40.734 42.133C39.86 48.95 45.104 50 47.902 50c8.741 0 16.434-25.35 16.434-35.84C64.336 5.595 57.517 0 49.826 0 41.607 0 35.14 6.119 35.14 13.461c0 6.294 4.72 11.714 11.364 13.112-1.4 7.693-5.245 9.79-5.77 15.56zm-35.14 0C4.72 48.95 9.965 50 12.762 50c8.741 0 16.434-25.35 16.434-35.84C29.196 5.595 22.378 0 14.686 0 6.468 0 0 6.119 0 13.461c0 6.294 4.72 11.714 11.364 13.112-1.399 7.693-5.245 9.79-5.77 15.56z" fill="#F07FAE"/></svg>