<svg xmlns="http://www.w3.org/2000/svg" width="38" height="12"><path id="arrow_1" data-name="arrow 1" d="M1233.33 1928.59v.49H1196v-.49h37.33zm.67.32l-.35.35-5.97-5.92.35-.35zm-.17.03l-.36-.35-6.12 6.06.36.35zm-.5-.35v.49H1196v-.49h37.33zm.67.32l-.35.35-5.97-5.92.35-.35zm-.17.03l-.36-.35-6.12 6.06.36.35zm-.5-.35v.49H1196v-.49h37.33zm.67.32l-.35.35-5.97-5.92.35-.35zm-.17.03l-.36-.35-6.12 6.06.36.35zm-.5-.35v.49H1196v-.49h37.33zm.67.32l-.35.35-5.97-5.92.35-.35zm-.17.03l-.36-.35-6.12 6.06.36.35z" transform="translate(-1196 -1923)" fill="#fdfaf3" fill-rule="evenodd"/></svg>